<?xml version="1.0" standalone="no"?>
<!DOCTYPE svg PUBLIC "-//W3C//DTD SVG 1.1//EN" "http://www.w3.org/Graphics/SVG/1.1/DTD/svg11.dtd" >
<!--
2013-9-30: Created.
-->
<svg>
<metadata>
Created by iconfont
</metadata>
<defs>

<font id="iconfont" horiz-adv-x="1024" >
  <font-face
    font-family="iconfont"
    font-weight="500"
    font-stretch="normal"
    units-per-em="1024"
    ascent="896"
    descent="-128"
  />
    <missing-glyph />
    
    <glyph glyph-name="x" unicode="x" horiz-adv-x="1001"
d="M281 543q-27 -1 -53 -1h-83q-18 0 -36.5 -6t-32.5 -18.5t-23 -32t-9 -45.5v-76h912v41q0 16 -0.5 30t-0.5 18q0 13 -5 29t-17 29.5t-31.5 22.5t-49.5 9h-133v-97h-438v97zM955 310v-52q0 -23 0.5 -52t0.5 -58t-10.5 -47.5t-26 -30t-33 -16t-31.5 -4.5q-14 -1 -29.5 -0.5
t-29.5 0.5h-32l-45 128h-439l-44 -128h-29h-34q-20 0 -45 1q-25 0 -41 9.5t-25.5 23t-13.5 29.5t-4 30v167h911zM163 247q-12 0 -21 -8.5t-9 -21.5t9 -21.5t21 -8.5q13 0 22 8.5t9 21.5t-9 21.5t-22 8.5zM316 123q-8 -26 -14 -48q-5 -19 -10.5 -37t-7.5 -25t-3 -15t1 -14.5
t9.5 -10.5t21.5 -4h37h67h81h80h64h36q23 0 34 12t2 38q-5 13 -9.5 30.5t-9.5 34.5q-5 19 -11 39h-368zM336 498v228q0 11 2.5 23t10 21.5t20.5 15.5t34 6h188q31 0 51.5 -14.5t20.5 -52.5v-227h-327z" />
    

    
    <glyph glyph-name="cry" unicode="&#59036;" d="M1024 384C1024 666.769792 794.769792 896 512 896 229.230208 896 0 666.769792 0 384 0 101.230208 229.230208-128 512-128 629.410831-128 740.826187-88.331046 830.768465-16.686662 841.557579-8.092491 843.33693 7.620766 834.742758 18.409879 826.148587 29.198991 810.43533 30.978342 799.646219 22.384173 718.470035-42.277495 618.001779-78.048781 512-78.048781 256.817504-78.048781 49.951219 128.817504 49.951219 384 49.951219 639.182496 256.817504 846.048781 512 846.048781 767.182496 846.048781 974.048781 639.182496 974.048781 384 974.048781 296.507166 949.714859 212.663236 904.470807 140.039307 897.177109 128.331757 900.755245 112.928203 912.462793 105.634507 924.170342 98.340809 939.573897 101.918942 946.867595 113.626492 997.013826 194.119204 1024 287.101621 1024 384ZM337.170731 396.487806C371.654852 396.487806 399.609756 424.442709 399.609756 458.926829 399.609756 493.41095 371.654852 521.365854 337.170731 521.365854 302.686611 521.365854 274.731708 493.41095 274.731708 458.926829 274.731708 424.442709 302.686611 396.487806 337.170731 396.487806ZM711.804879 396.487806C746.288998 396.487806 774.243902 424.442709 774.243902 458.926829 774.243902 493.41095 746.288998 521.365854 711.804879 521.365854 677.320757 521.365854 649.365854 493.41095 649.365854 458.926829 649.365854 424.442709 677.320757 396.487806 711.804879 396.487806ZM352.788105 191.215475C396.165222 225.917169 453.151987 246.639629 524.487806 246.639629 595.823622 246.639629 652.810387 225.917169 696.187505 191.215475 722.700531 170.005054 738.882517 148.429073 746.631548 132.931012 752.800254 120.593598 747.799529 105.591424 735.462114 99.422716 723.124702 93.25401 708.122526 98.254735 701.953818 110.592149 701.03616 112.427465 698.492224 116.617476 694.165854 122.385971 686.602473 132.470477 676.927317 142.654852 664.983226 152.210125 630.311565 179.947456 584.273939 196.68841 524.487806 196.68841 464.70167 196.68841 418.664045 179.947456 383.992384 152.210125 372.048292 142.654852 362.373137 132.470477 354.809756 122.385971 350.483386 116.617476 347.93945 112.427465 347.021792 110.592149 340.853084 98.254735 325.850908 93.25401 313.513495 99.422716 301.176081 105.591424 296.175356 120.593598 302.344062 132.931012 310.093092 148.429073 326.275078 170.005054 352.788105 191.215475Z"  horiz-adv-x="1024" />

    
    <glyph glyph-name="delete" unicode="&#59037;" d="M972.657609 686.651592C987.158609 686.63161 998.930114 698.428798 998.949999 713.00135 998.969882 727.573903 987.230618 739.40349 972.729617 739.423472L32.457975 740.719194C17.956974 740.739177 6.18547 728.941988 6.165585 714.369436 6.1457 699.796884 17.884965 687.967297 32.385966 687.947314L972.657609 686.651592ZM180.466902-96.356169 180.466902-123.014859 206.993296-122.74074 833.361858-116.267947 859.348284-115.999407 859.348284-89.883377 859.348284 606.602703C859.348284 621.175268 847.59289 632.988668 833.091874 632.988668 818.590859 632.988668 806.835465 621.175268 806.835465 606.602703L806.835465-89.883377 832.82189-63.498805 206.453329-69.971599 232.979723-96.356169 232.979723 613.32995C232.979723 627.902517 221.224329 639.715915 206.723313 639.715915 192.222298 639.715915 180.466902 627.902517 180.466902 613.32995L180.466902-96.356169ZM656.410257 48.920973C656.410257 34.348407 668.165651 22.535008 682.666667 22.535008 697.167682 22.535008 708.923076 34.348407 708.923076 48.920973L708.923076 523.868341C708.923076 538.440909 697.167682 550.254306 682.666667 550.254306 668.165651 550.254306 656.410257 538.440909 656.410257 523.868341L656.410257 48.920973ZM341.333333 48.920973C341.333333 34.348407 353.08873 22.535008 367.589743 22.535008 382.090758 22.535008 393.846155 34.348407 393.846155 48.920973L393.846155 523.868341C393.846155 538.440909 382.090758 550.254306 367.589743 550.254306 353.08873 550.254306 341.333333 538.440909 341.333333 523.868341L341.333333 48.920973ZM498.871795 48.920973C498.871795 34.348407 510.627189 22.535008 525.128205 22.535008 539.62922 22.535008 551.384614 34.348407 551.384614 48.920973L551.384614 523.868341C551.384614 538.440909 539.62922 550.254306 525.128205 550.254306 510.627189 550.254306 498.871795 538.440909 498.871795 523.868341L498.871795 48.920973ZM392.147755 779.278223C392.147755 793.936331 403.758665 805.636493 418.40134 805.636493L622.925796 805.636493C637.408947 805.636493 649.179381 793.8381 649.179381 779.450415L649.179381 724.355125 701.692203 724.355125 701.692203 779.450415C701.692203 823.013393 666.38105 858.408423 622.925796 858.408423L418.40134 858.408423C374.724427 858.408423 339.634933 823.049196 339.634933 779.278223L339.634933 730.689199 392.147755 730.689199 392.147755 779.278223Z"  horiz-adv-x="1024" />

    
    <glyph glyph-name="edit" unicode="&#59038;" d="M34.155089 665.059773 9.17948 665.059773 9.17948 639.796614 9.17948 41.841988C9.17948-27.769568 65.248004-84.289737 134.081773-84.289737L927.938515-84.289737 952.914125-84.289737 952.914125-59.026579 952.914125 424.899439C952.914125 438.851895 941.732164 450.162598 927.938515 450.162598 914.144868 450.162598 902.962906 438.851895 902.962906 424.899439L902.962906-59.026579 927.938515-33.76342 134.081773-33.76342C92.797081-33.76342 59.130699 0.174153 59.130699 41.841988L59.130699 639.796614 34.155089 614.533457 598.93821 614.533457C612.731859 614.533457 623.91382 625.844158 623.91382 639.796614 623.91382 653.749072 612.731859 665.059773 598.93821 665.059773L34.155089 665.059773ZM437.016339 302.496211 431.876019 295.895108 431.668623 287.494786 427.984924 138.290259 427.077935 101.553579 461.312335 113.853545 605.005395 165.480553 611.980762 167.986709 616.479561 173.932757 1003.181673 685.035772 1018.529978 705.321579 998.306108 720.620695 869.49174 818.067219 849.985487 832.823464 834.913446 813.46823 437.016339 302.496211ZM839.575373 777.604982 968.389739 680.158458 963.514174 715.743381 576.81206 204.640367 588.286225 213.092572 444.593165 161.465564 477.920574 137.028849 481.604275 286.233378 476.256559 271.231953 874.153664 782.20397 839.575373 777.604982ZM891.217762 585.494287 920.474916 626.446748 808.309143 708.435734 779.051989 667.483275 891.217762 585.494287Z"  horiz-adv-x="1024" />

    
    <glyph glyph-name="set" unicode="&#59054;" d="M825.606018 248.461717 819.263571 235.741545 827.207981 223.95529 905.327294 108.058193 908.52362 139.141679 769.540324 3.626127 799.04025 7.115004 671.47766 83.116681 660.919793 89.407046 649.583401 84.661163C641.524386 81.287326 633.321491 78.204958 625.041941 75.439663L611.811631 71.020858 608.915804 57.376038 580.996546-74.176486 604.846304-54.857143 408.272431-54.857141 431.938677-73.378097 397.841517 64.327061 394.800523 76.608452 383.007648 81.191938C375.650317 84.051482 368.359849 87.170722 361.19018 90.526543L349.017562 96.224034 337.701214 88.973216 217.88134 12.200015 248.055031 9.128335 109.071736 144.636279 112.710251 114.231712 190.651237 238.590583 197.546671 249.592606 192.26576 261.454455C188.597667 269.693634 185.255827 278.10566 182.266902 286.622118L177.674889 299.706315 164.082002 302.447895 29.201333 329.652282 48.761905 305.752599 48.761905 497.40253 29.96636 473.669978 171.221091 506.913988 183.450436 509.792139 188.204044 521.421577C191.634415 529.81379 195.421037 538.096149 199.530538 546.196672L205.959792 558.869818 198.101254 570.70989 124.686421 681.320416 121.526273 650.511849 259.687038 787.298784 229.912147 783.764797 352.693357 709.475686 363.287226 703.065837 374.712497 707.838612C381.330477 710.603196 388.053308 713.173769 394.835279 715.53319L407.314641 719.87471 410.490432 732.700371 443.437389 865.758996 419.771153 847.238095 616.327194 847.238095 592.477417 866.557526 621.325088 730.62796 624.105103 717.528597 636.651202 712.847021C646.841886 709.044368 656.865493 704.767605 666.627682 700.056896L678.796045 694.185096 690.225485 701.390303 803.674639 772.909532 773.791902 775.942467 914.162801 641.245167 910.479401 671.93453 834.210227 552.18633 827.217813 541.207727 832.449542 529.289143C836.047972 521.091433 839.325363 512.718893 842.252943 504.24713L846.63933 491.553911 859.712006 488.47766 994.034289 456.869065 975.238095 480.601771 975.238095 288.95184 994.798163 312.85142 852.982818 284.24525 840.250379 281.676937 835.279123 269.677026C832.31875 262.531102 829.086927 255.442899 825.606018 248.461717ZM857.803703 260.34567 862.624587 236.446091 1004.439932 265.05226 1024 268.997805 1024 288.95184 1024 480.601771 1024 499.911373 1005.203806 504.334475 870.881523 535.943072 865.296766 512.210366 888.340587 520.173602C884.98377 529.887479 881.22675 539.485301 877.099219 548.888369L854.774381 539.088755 875.338534 525.991181 951.607706 645.739381 962.34231 662.593495 947.924307 676.428745 807.553406 811.126044 793.797813 824.325656 777.670669 814.158979 664.221513 742.63975 677.223499 722.015027 687.819315 743.973158C676.702449 749.337561 665.295885 754.20439 653.698526 758.531943L645.174865 735.689482 669.02464 740.751004 640.176969 876.68057 636.0769 896 616.327194 896 419.771153 896 400.690923 896 396.104919 877.479099 363.157965 744.420473 386.824198 738.560422 378.813118 761.587654C371.096704 758.903145 363.448934 755.978908 355.916838 752.832462L365.314667 730.335537 377.935979 751.195387 255.154767 825.484498 238.88953 835.325826 225.379878 821.950511 87.219113 685.163575 72.972426 671.058551 84.058966 654.355008 157.473798 543.744482 177.787526 557.227187 156.044514 568.257702C151.336434 558.97728 146.99905 549.490257 143.067323 539.871503L165.635683 530.646541 160.050276 554.379093 18.795545 521.135083 0 516.71159 0 497.40253 0 305.752599 0 285.798133 19.560572 281.852917 154.441241 254.648533 159.261622 278.548213 136.256342 270.47431C139.682853 260.711021 143.513008 251.069818 147.71909 241.622221L169.992425 251.538338 149.333613 264.486093 71.392628 140.127221 60.94464 123.456915 75.031143 109.722652 214.014438-25.785293 227.881289-39.305393 244.18813-28.856971 364.008004 47.91623 350.854609 68.444723 340.519036 46.362903C348.675428 42.545237 356.968563 38.997003 365.342891 35.742189L374.17527 58.467063 350.509022 52.607068 384.606182-85.098091 389.192156-103.619046 408.272431-103.619046 604.846304-103.619049 624.595936-103.619049 628.696062-84.299706 656.615319 47.252817 632.765562 52.314428 640.489184 29.189193C649.912247 32.336412 659.243565 35.842801 668.413638 39.681773L658.998519 62.171469 646.519381 41.226255 774.081971-34.775422 790.172006-44.36185 803.581897-31.286545 942.565193 104.229005 957.136469 118.436719 945.761519 135.312491 867.642208 251.209587 847.425094 237.582438 869.244171 226.703159C873.230259 234.697506 876.932843 242.818202 880.328282 251.014315L857.803703 260.34567ZM731.428572 396.190477C731.428572 510.644915 638.644915 603.428572 524.190477 603.428572 409.736036 603.428572 316.952382 510.644915 316.952382 396.190477 316.952382 281.736036 409.736036 188.952382 524.190477 188.952382 553.504879 188.952382 582.005801 195.057111 608.253005 206.71738 620.558583 212.184111 626.102566 226.591411 620.635836 238.89699 615.169107 251.202566 600.761807 256.746549 588.456228 251.279821 568.411953 242.375189 546.651767 237.714285 524.190477 237.714285 436.666494 237.714285 365.714285 308.666494 365.714285 396.190477 365.714285 483.71446 436.666494 554.666667 524.190477 554.666667 611.71446 554.666667 682.666667 483.71446 682.666667 396.190477 682.666667 384.625745 681.431994 373.2376 679.007782 362.152755 676.130985 348.998426 684.462569 336.002626 697.616898 333.125828 710.77123 330.24903 723.767027 338.580614 726.643825 351.734944 729.815238 366.236418 731.428572 381.117165 731.428572 396.190477Z"  horiz-adv-x="1024" />

    
    <glyph glyph-name="kaoshijilu" unicode="&#58937;" d="M511.998465 751.327152c-222.656079 0-403.139663-180.50712-403.139663-403.140687 0-222.633566 180.483584-403.14171 403.139663-403.14171 222.63459 0 403.142733 180.50712 403.142733 403.14171C915.141198 570.820032 734.633055 751.327152 511.998465 751.327152zM552.136627 568.976034c0 4.29277 3.831258 7.78429 8.511861 7.78429l25.536606 0c4.657067 0 8.488325-3.492544 8.488325-7.78429l0-64.87352c0-4.29277-3.831258-7.80885-8.488325-7.80885l-25.536606 0c-4.680603 0-8.511861 3.51608-8.511861 7.80885L552.136627 568.976034zM404.926868 293.376139l0 20.759813 214.121705 0 0-20.759813L404.926868 293.376139zM619.04755 247.9526l0-20.75879L404.926868 227.193811l0 20.75879L619.04755 247.9526zM404.926868 359.560514l0 20.735253 214.121705 0 0-20.735253L404.926868 359.560514zM404.926868 425.719306l0 20.759813 214.121705 0 0-20.759813L404.926868 425.719306zM479.379557 551.515361l65.214281 0 0-27.695782-65.214281 0L479.379557 551.515361zM427.844833 568.976034c0 4.29277 3.831258 7.78429 8.511861 7.78429l25.514093 0c4.679579 0 8.511861-3.492544 8.511861-7.78429l0-64.87352c0-4.29277-3.832282-7.80885-8.511861-7.80885l-25.514093 0c-4.680603 0-8.511861 3.51608-8.511861 7.80885L427.844833 568.976034zM693.015192 187.686005c0-34.07405-31.017434-57.93755-63.321164-57.93755L394.304949 129.748455c-32.328289 0-63.346747 23.863501-63.346747 57.93755l0 305.866223c0 50.978045 47.242977 57.96211 86.022189 57.96211l0-27.695782c-22.1423 0-55.780421 1.648546-55.780421-30.266327l0-305.866223c0-17.801435 16.22452-30.266327 33.104979-30.266327L629.695051 157.419677c16.878412 0 33.079396 12.465916 33.079396 30.266327l0 305.866223c0 31.914874-33.637098 30.266327-55.780421 30.266327l0 27.695782c38.902008 0 86.022189-6.815219 86.022189-57.96211L693.016215 187.686005z"  horiz-adv-x="1024" />

    
    <glyph glyph-name="gerenzhongxin" unicode="&#59147;" d="M690.366 533.432c0 98.877-79.937 179.049-178.558 179.049-98.599 0-178.515-80.151-178.515-179.049 0-98.834 79.916-178.963 178.515-178.963 98.621 0 178.558 80.151 178.558 178.963M376.141 533.432c0 75.16 60.721 136.073 135.667 136.073 74.989 0 135.667-60.913 135.667-136.073 0-75.117-60.678-136.03-135.667-136.03-74.947 0.021-135.667 60.934-135.667 136.03M197.284 121.076l0-15.548 638.07 0 0 15.548c0 139.784-136.414 285.582-311.026 273.276-10.003-0.704-24.74-9.128-34.658-9.939-8.574-0.746 13.693-8.233 14.396-16.828 9.022 0.789 6.313-13.095 15.505-13.095 150.597 0 263.145-103.078 263.145-224.627l15.441 15.591-285.817 0.043-278.992-1.813 15.527-15.612c0 82.753 75.096 152.708 136.862 191.824 7.252 4.586 8.659 17.66 4.863 22.906-6.846 9.427-19.878 8.702-28.046 6.014-77.293-25.338-165.271-132.575-165.271-227.74M512.32 882.464c-282.767 0-512.021-228.892-512.021-511.211 0-282.468 229.255-511.254 512.021-511.254 117.432 0 228.828 39.606 318.811 111.204 10.792 8.489 12.541 24.229 3.988 34.999-8.617 10.771-24.357 12.541-35.127 3.946-81.174-64.539-181.587-100.242-287.651-100.242-255.211 0-462.028 206.562-462.028 461.367 0 254.763 206.818 461.303 462.028 461.303 255.211 0 462.092-206.562 462.092-461.303 0-87.381-24.335-171.093-69.615-243.651-7.273-11.645-3.668-27.087 8.041-34.359 11.709-7.273 27.108-3.626 34.402 7.977 50.185 80.407 77.143 173.247 77.143 270.055-0.021 282.276-229.297 511.168-512.085 511.168z"  horiz-adv-x="1025" />

    
    <glyph glyph-name="remind" unicode="&#59155;" d="M538.566466-127.088677C536.442301-127.088677 534.296495-127.023404 532.085637-126.915658 453.644248-122.970174 421.998927-56.558642 416.233425-22.008283 414.28268-10.196423 422.259039 0.96717 434.050197 2.938793 445.754623 5.019952 456.938872-2.999774 458.976262-14.7477 459.474802-17.435546 471.374332-80.44435 534.296495-83.608784 596.069881-87.532361 611.155621-17.196806 611.740847-14.227299 614.038393-2.479817 625.504392 5.258245 637.208818 2.80914 648.95661 0.489687 656.586167-10.932765 654.245257-22.658784 646.962498-59.441417 613.474848-127.088677 538.566466-127.088677L538.566466-127.088677 538.566466-127.088677ZM57.238985 73.833077C57.304035 73.833077 57.412408 72.143111 58.582842 70.907383 60.663619 68.73949 66.819288 66.39858 77.851798 66.39858L950.850912 66.39858C961.710045 66.39858 966.283453 68.674665 967.063743 69.45482L966.110074 72.554425 966.131714 116.251154 967.367175 118.808453C967.540597 123.512631 965.524846 152.361377 900.998697 212.31394 808.577021 298.168097 751.355358 515.957417 751.355358 668.527121 751.355358 791.250196 551.079467 809.283624 549.042032 809.435184L472.724766 809.370357C472.464656 809.283624 272.167125 791.250196 272.167125 668.527121 272.167125 534.814813 227.365126 304.866254 127.704015 212.31394 61.573964 150.887353 57.195664 121.019712 56.935551 116.251154L57.434073 114.820498 57.195664 73.724883C57.217324 73.789709 57.217324 73.833077 57.238985 73.833077L57.238985 73.833077ZM77.851798 23.049233C54.507951 23.049233 36.929651 29.681668 25.63703 42.729706 15.753293 54.174063 13.239004 68.414463 14.084298 77.995393L14.084298 108.990124C11.439979 125.202593 16.07841 167.772233 98.204521 244.067814 178.878427 319.019473 228.817333 522.74186 228.817333 668.527121 228.817333 831.110081 461.085347 851.853262 470.969083 852.654877L480.023302 852.662278 480.023302 877.970885C480.023302 887.439933 487.691443 895.116113 497.162607 895.116113L519.306723 895.116113C528.7725 895.116113 536.446027 887.436396 536.446027 877.974239L536.446027 852.708401 550.819354 852.72015C562.480459 851.853262 794.705104 831.110081 794.705104 668.527121 794.705104 524.454177 849.282468 319.517967 930.498212 244.067814 1011.86574 168.48756 1013.989862 125.267868 1009.481507 107.79776L1009.481507 79.382235C1011.453889 69.389992 1010.478541 55.32306 1001.851903 43.618499 991.751467 29.984788 974.584928 23.049233 950.850912 23.049233L77.851798 23.049233Z"  horiz-adv-x="1024" />

    
    <glyph glyph-name="kaoshiyuyue" unicode="&#58890;" d="M72.265349 7.136203l49.140438 0L121.405787 425.552576l106.952717 0 0 52.031052L72.265349 477.583627 72.265349 7.136203zM410.467184 554.184898c0 15.898377-13.007763 28.90614-28.90614 28.90614l-46.249824 0c-15.898377 0-28.90614-13.007763-28.90614-28.90614l0-75.878617-52.031052 0L254.37403 476.860974 252.928723 476.860974l0-101.171489 209.569513 0 0 49.863091L462.498236 476.860974l0 1.445307-52.031052 0L410.467184 554.184898zM358.436133 504.321807c-14.45307 0-26.015526 11.562456-26.015526 26.015526 0 14.45307 11.562456 26.015526 26.015526 26.015526s26.015526-11.562456 26.015526-26.015526C384.451658 515.884263 372.889203 504.321807 358.436133 504.321807zM870.797459 685.707833l-139.472124 0 0-52.753705 139.472124 0L870.797459 685.707833zM912.711362 558.520819l9.394495 0c18.788991 0 33.964714 15.175723 33.964714 33.964714L956.070572 730.51235c0 18.788991-15.175723 33.964714-33.964714 33.964714l-9.394495 0c-18.788991 0-33.964714-15.175723-33.964714-33.964714L878.746648 592.485533C879.469301 573.696542 894.645025 558.520819 912.711362 558.520819zM679.294284 558.520819l9.394495 0c18.788991 0 33.964714 15.175723 33.964714 33.964714L722.653493 730.51235c0 18.788991-15.175723 33.964714-33.964714 33.964714L679.294284 764.477064c-18.788991 0-33.964714-15.175723-33.964714-33.964714L645.32957 592.485533C645.32957 573.696542 660.505293 558.520819 679.294284 558.520819zM964.742414 685.707833l0-52.753705 93.944954 0 0-182.831334-520.310515 0L538.376853 632.954128l98.280875 0 0 52.753705L486.345801 685.707833l0-680.016937 624.372618 0L1110.718419 685.707833 964.742414 685.707833zM711.091037 101.081157l-31.0741 0L680.016937 309.205363l-0.722653 0-41.191249-22.402258-6.503881 24.570219 52.031052 28.183486 27.460833 0L711.091037 101.081157zM859.957657 98.913197c-26.738179 0-49.863091 8.671842-61.425547 15.898377l8.671842 24.570219c9.394495-5.781228 30.351447-15.175723 52.753705-15.175723 41.191249 0 54.199012 26.015526 53.476359 46.249824-0.722653 33.242061-30.351447 47.695131-61.425547 47.695131l-18.066337 0 0 23.847565 18.066337 0c23.124912 0 52.753705 12.285109 52.753705 40.468596 0 18.788991-12.285109 36.132675-41.191249 36.132675-18.788991 0-36.855328-8.671842-47.695131-15.898377l-8.671842 23.124912c12.285109 9.394495 36.132675 18.066337 62.1482 18.066337 46.972477 0 67.929428-28.183486 67.929428-57.089626 0-24.570219-14.45307-45.52717-43.35921-56.366972l0-0.722653c28.90614-5.781228 52.753705-28.183486 52.753705-61.425547C946.676076 132.155258 917.047283 98.913197 859.957657 98.913197z"  horiz-adv-x="1166" />

    
    <glyph glyph-name="x-rmvb" unicode="&#59022;" d="M849.5-66h-675c-66.284 0-112.5 46.216-112.5 112.5v675c0 66.284 46.216 112.5 112.5 112.5h675c66.284 0 112.5-46.216 112.5-112.5v-675c0-66.284-46.216-112.5-112.5-112.5zM99.5 684v-75h150l-72.858 182.135c-46.619-13.532-77.142-53.522-77.142-107.135zM249.5 796.5l75.001-187.5h112.481l-74.982 187.5h-112.5zM436.982 796.5l75.018-187.5h112.5l-75 187.5h-112.519zM624.5 796.5l75-187.5h112.5l-75 187.5h-112.5zM924.5 684c0 66.284-46.216 112.5-112.5 112.5l75.001-187.5h37.499v75zM924.5 571.5h-824.999v-487.5c0-66.284 46.216-112.5 112.5-112.5h600c66.284 0 112.5 46.216 112.5 112.5v487.5zM362 459l337.5-187.5-337.5-187.5v374.999z"  horiz-adv-x="1024" />

    
    <glyph glyph-name="creditlevel" unicode="&#59189;" d="M998.4 526.933l-200.533 275.2c-4.267 6.4-12.8 10.667-19.2 10.667h-535.467c0 0-14.933-2.133-23.467-17.067-25.6-42.667-187.733-283.733-187.733-283.733l-10.667-17.067 448-522.667c4.267-4.267 6.4-6.4 10.667-8.533 6.4-4.267 32-10.667 46.933 0 4.267 2.133 6.4 6.4 10.667 8.533l409.6 420.267c10.667 8.533 10.667 25.6 0 34.133-8.533 10.667-23.467 10.667-32 0l-354.133-364.8 153.6 422.4h251.733c2.133 0 19.2 0 23.467 4.267l2.133 2.133c12.8 6.4 14.933 21.333 6.4 36.267zM782.933 763.733l-96-226.133h-345.6l-85.333 226.133h526.933zM221.867 714.667l72.533-179.2h-192l119.467 179.2zM91.733 488.533h215.467l138.667-416-354.133 416zM503.467 44.8l-147.2 443.733h307.2l-160-443.733zM736 535.467l74.667 166.4 119.467-168.533-194.133-0z"  horiz-adv-x="1024" />

    
    <glyph glyph-name="creditlevelfilling" unicode="&#59190;" d="M1002.667 512l-189.867 264.533-89.6-264.533zM362.667 469.333l149.333-433.067 147.2 433.067zM678.4 512l93.867 298.667h-520.533l96-298.667zM535.467-38.4l2.133-2.133 462.933 509.867h-292.267zM209.067 778.667l-187.733-266.667h279.467zM21.333 469.333l465.067-514.133v8.533l-170.667 505.6z"  horiz-adv-x="1024" />

    
    <glyph glyph-name="kaoshixinxi" unicode="&#58963;" d="M824.097926 803.058094c-10.343671 6.704231-23.369035 7.598129-34.542753 2.617843l-20.495793-9.258224-107.842348 50.696758c3.320191 8.811275 3.192491 18.899547-1.149297 28.157771-8.555876 18.069499-30.200965 25.795328-48.270465 17.239452L204.116162 699.557533C191.473897 693.55565 183.36497 680.785686 183.36497 666.866425l0-684.597784c0-14.046961 8.108927-26.880775 20.815042-32.818808l152.473373-71.639499c4.852586-2.298594 10.152122-3.44789 15.387807-3.44789 4.980286 0 9.960572 1.085447 14.557759 3.064791l432.32714 189.889368c13.216913 5.746484 21.708939 18.771847 21.708939 33.138057l0 672.147069C840.63503 784.924745 834.377748 796.353863 824.097926 803.058094zM768.101633 124.142944l-395.549643-173.671514-116.717473 54.783147L255.834517 587.564947l90.347497-46.35497c9.769023-5.044136 21.38969-5.363385 31.414112-0.766198l390.505507 176.097807L768.101633 124.142944 768.101633 124.142944zM699.526925 198.974935 496.229094 198.974935c-7.725828 0-13.919261-6.257282-13.919261-13.983111 0-7.725828 6.257282-13.919261 13.919261-13.919261l203.297831 0c7.725828 0 13.919261 6.257282 13.919261 13.919261C713.446186 192.717652 707.252753 198.974935 699.526925 198.974935zM699.526925 307.200382 496.229094 307.200382c-7.725828 0-13.919261-6.257282-13.919261-13.919261 0-7.725828 6.257282-13.919261 13.919261-13.919261l203.297831 0c7.725828 0 13.919261 6.257282 13.919261 13.919261C713.446186 301.006949 707.252753 307.200382 699.526925 307.200382zM496.229094 387.587307l203.297831 0c7.725828 0 13.919261 6.257282 13.919261 13.919261 0 7.725828-6.257282 13.983111-13.919261 13.983111L496.229094 415.489679c-7.725828 0-13.919261-6.257282-13.919261-13.983111C482.245983 393.844589 488.503266 387.587307 496.229094 387.587307zM430.783027 432.79298 396.240274 432.79298c-7.725828 0-13.983111-6.257282-13.983111-13.919261l0-34.606603c0-7.725828 6.257282-13.983111 13.983111-13.983111l34.606603 0c7.725828 0 13.983111 6.257282 13.983111 13.983111L444.829988 418.809869C444.766138 426.535698 438.508856 432.79298 430.783027 432.79298zM430.783027 324.567533 396.240274 324.567533c-7.725828 0-13.983111-6.257282-13.983111-13.983111l0-34.606603c0-7.725828 6.257282-13.919261 13.983111-13.919261l34.606603 0c7.725828 0 13.983111 6.257282 13.983111 13.919261L444.829988 310.584422C444.766138 318.310251 438.508856 324.567533 430.783027 324.567533zM430.783027 216.278236 396.240274 216.278236c-7.725828 0-13.983111-6.257282-13.983111-13.919261l0-34.606603c0-7.725828 6.257282-13.919261 13.983111-13.919261l34.606603 0c7.725828 0 13.983111 6.257282 13.983111 13.919261l0 34.606603C444.766138 210.020954 438.508856 216.278236 430.783027 216.278236z"  horiz-adv-x="1024" />

    
    <glyph glyph-name="exl" unicode="&#59199;" d="M905.185809 717.155842C898.576738 723.314515 891.19337 730.175588 883.21687 737.563873 860.422682 758.677137 837.434925 779.792209 815.697647 799.512105 813.243072 801.738123 813.243072 801.738123 810.786411 803.962919 781.783552 830.218938 757.590948 851.623498 739.713617 866.706388 729.254178 875.530889 721.020606 882.139314 714.970549 886.498273 710.955023 889.391389 707.690543 891.475255 704.47155 893.001286 700.417679 894.92311 696.638044 896.094029 691.307277 895.994072 677.045677 895.726651 665.6 884.230663 665.6 869.817273L665.6 818.647156 665.6 767.477039 665.6 665.136806 665.6 639.551748 691.2 639.551748 896 639.551748 870.4 665.136806 870.4-102.414942 896-76.829884 230.381436-76.829884C187.90385-76.829884 153.6-42.623723 153.6-0.20663L153.6 869.817273 128 844.232214 588.8 844.232214C602.93849 844.232214 614.4 855.687035 614.4 869.817273 614.4 883.94751 602.93849 895.402331 588.8 895.402331L128 895.402331 102.4 895.402331 102.4 869.817273 102.4-0.20663C102.4-70.91021 159.652833-128 230.381436-128L896-128 921.6-128 921.6-102.414942 921.6 665.136806 921.6 690.721865 896 690.721865 691.2 690.721865 716.8 665.136806 716.8 767.477039 716.8 818.647156 716.8 869.817273C716.8 856.186238 705.748075 845.08573 692.267725 844.832959 687.705707 844.747416 685.069822 845.564005 682.52845 846.768796 682.259458 846.896318 683.344977 846.203382 685.029451 844.989748 689.779394 841.567498 697.145822 835.65506 706.686383 827.605804 724.009052 812.990879 747.816448 791.927131 776.413589 766.038406 778.850014 763.831936 778.850014 763.831936 781.285216 761.623486 802.876774 742.035788 825.739479 721.03558 848.413564 700.033563 856.350957 692.6815 863.697005 685.855107 870.269888 679.730157 874.209847 676.058701 877.019309 673.434359 878.499674 672.048591 888.81866 662.389069 905.019017 662.918788 914.684179 673.231753 924.349344 683.544717 923.819315 699.735617 913.500326 709.395139 911.981323 710.817055 909.155025 713.457124 905.185809 717.155842ZM102.4 434.871281 0 434.871281 0-0.074709 512-0.074709 1024-0.074709 1024 434.871281 153.6 434.871281 153.6 435.468951 102.4 435.468951 102.4 434.871281ZM349.4 222.8 229.8 222.8 229.8 133.2 369.6 133.2 369.6 92.8 179.2 92.8 179.2 384 368.2 384 368.2 343.2 229.8 343.2 229.8 262.8 349.4 262.8 349.4 222.8ZM511 278.8 572.2 384 630.6 384 542.6 239.6 632.6 92.8 573.6 92.8 511 199.6 448.2 92.8 389.4 92.8 479.6 239.6 391.4 384 449.8 384 511 278.8ZM720.6 133.2 852.8 133.2 852.8 92.8 670 92.8 670 384 720.6 384 720.6 133.2Z"  horiz-adv-x="1024" />

    
    <glyph glyph-name="xingjikaoshi" unicode="&#59262;" d="M487.677 443.803c-4.401 0-8.822 1.523-12.423 4.594-8.010 6.874-8.939 18.937-2.074 26.946l292.521 341.313c6.862 8.001 18.927 8.938 26.932 2.064 8.010-6.874 8.939-18.927 2.069-26.928l-292.515-341.313c-3.782-4.404-9.128-6.675-14.511-6.675v0zM487.677 443.803zM643.032 313.714c-4.404 0-8.827 1.506-12.427 4.594-8.010 6.865-8.934 18.919-2.061 26.928l296.18 345.589c6.865 8.001 18.927 8.947 26.94 2.082 8.005-6.874 8.926-18.927 2.065-26.936l-296.194-345.596c-3.782-4.405-9.125-6.659-14.505-6.659v0zM643.032 313.714zM631.598 320.441c-4.396 0-8.813 1.523-12.418 4.612l-141.484 121.253c-8.010 6.874-8.943 18.937-2.073 26.946 6.87 8.010 18.913 8.931 26.927 2.083l141.489-121.278c8.014-6.865 8.938-18.919 2.073-26.928-3.777-4.414-9.128-6.685-14.515-6.685v0zM631.598 320.441zM471.378 274.657c-0.728 0-1.453 0.051-2.194 0.128-10.487 1.212-18.006 10.668-16.802 21.156l19.615 171.004c1.201 10.479 10.669 17.998 21.151 16.785 10.479-1.196 17.998-10.676 16.798-21.147l-19.62-170.996c-1.114-9.729-9.377-16.929-18.948-16.929v0zM471.378 274.657zM476.221 270.483c-8.388 0-16.083 5.574-18.41 14.049-2.787 10.169 3.197 20.691 13.365 23.468l165.984 45.554c10.173 2.797 20.686-3.192 23.469-13.37 2.791-10.177-3.193-20.681-13.365-23.468l-165.977-45.554c-1.695-0.465-3.394-0.681-5.067-0.681v0zM476.221 270.483zM515.825 614.222h-322.178c-10.552 0-19.103 8.56-19.103 19.107 0 10.548 8.552 19.090 19.103 19.090h322.178c10.548 0 19.1-8.543 19.1-19.090s-8.552-19.107-19.1-19.107v0zM515.825 614.222zM398.444 445.901h-204.797c-10.552 0-19.103 8.552-19.103 19.1s8.552 19.108 19.103 19.108h204.797c10.561 0 19.103-8.56 19.103-19.108s-8.556-19.1-19.103-19.1v0zM398.444 445.901zM367.133 277.59h-173.486c-10.552 0-19.103 8.552-19.103 19.090 0 10.547 8.552 19.090 19.103 19.090h173.486c10.552 0 19.1-8.544 19.1-19.090 0-10.538-8.547-19.090-19.1-19.090v0zM367.133 277.59zM838.009 109.252h-644.362c-10.552 0-19.103 8.552-19.103 19.090 0 10.565 8.552 19.107 19.103 19.107h644.362c10.548 0 19.103-8.543 19.103-19.107 0-10.538-8.556-19.090-19.103-19.090v0zM838.009 109.252zM909.033-54.578h-782.559c-27.191 0-49.3 22.093-49.3 49.253v781.597c0 27.177 22.109 49.262 49.3 49.262h651.139c10.547 0 19.099-8.543 19.099-19.090s-8.552-19.107-19.099-19.107h-651.139c-6.118 0-11.103-4.955-11.103-11.063v-781.597c0-6.099 4.986-11.056 11.103-11.056h782.558c6.118 0 11.099 4.955 11.099 11.056v621.697c0 10.556 8.547 19.1 19.1 19.1 10.551 0 19.102-8.543 19.102-19.1v-621.697c0-27.16-22.128-49.253-49.3-49.253v0zM909.033-54.578zM939.231 597.274c-10.552 0-19.1 8.552-19.1 19.099v62.021c0 10.555 8.547 19.099 19.1 19.099 10.551 0 19.102-8.543 19.102-19.099v-62.021c0-10.547-8.552-19.099-19.102-19.099v0zM939.231 597.274z"  horiz-adv-x="1024" />

    
    <glyph glyph-name="zans" unicode="&#59161;" d="M851.721208 487.968804l-180.453354-0.515771c10.078003 18.93719 59.671847 118.827922 46.530942 225.734779-5.499511 44.905853-33.750257 79.593504-79.562803 97.672099-17.906671 7.031474-105.656317 19.515385-132.203176-5.905783-18.437792-18.844064-17.015328-44.327658-15.37489-73.859644 0.797194-14.234872 1.702863-30.375232 0.952744-47.187936-4.468993-48.484527-10.718623-74.328341-23.077685-95.343965-37.390332-63.655769-100.609128-98.390494-114.124582-100.640852L91.814413 487.921729c-17.672322 0-32.00032-14.327997-32.00032-32.00032l0-417.265954c0-17.672322 14.327997-32.00032 32.00032-32.00032l269.327668 0.171924c0.266072-0.218998 0.531121-0.436973 0.812544-0.672344 23.890229-19.812158 87.359747-72.42183 192.437868-72.42183l210.921711 0c58.640305 0 105.96844 32.15587 123.515913 83.937647 0.202624 0.608896 0.390922 1.218816 0.562845 1.844086 2.17156 7.999568 8.233917 25.984014 15.23469 46.812364 28.124873 83.531375 75.18796 223.344221 75.18796 299.359052C979.814589 444.546816 934.33054 487.968804 851.721208 487.968804zM123.814733 423.922113l101.343897 0 0-353.265315-101.343897 0L123.814733 423.922113zM843.970315 86.73371c-7.640371-22.718487-13.250404-39.359268-16.030861-49.312421-12.609784-35.796968-47.937032-39.687765-62.62525-39.687765L554.392493-2.266476c-82.000436 0-130.765362 40.437884-151.593712 57.702911-10.374776 8.594138-18.577992 15.39024-31.749598 15.39024l-81.890937 0L289.158246 423.922113l65.250156 0c36.484663 0 122.624571 52.734521 169.296735 132.218526 20.156006 34.249655 27.04728 72.030909 31.734247 123.343989 0.999818 21.516045-0.031724 40.171812-0.874969 55.172154-0.390922 7.109249-0.844268 15.297115-0.827894 21.437247 18.328293 1.109317 51.421556-1.124667 61.047236-4.781116 24.281151-9.578605 36.82851-24.171652 39.484117-45.922045 11.030747-89.703231-34.296729-178.093497-39.500491-187.891101-0.296773-0.531121-0.76547-1.468515-1.015168-2.03136-9.265459-20.108931-7.62502-43.250064 4.374844-61.952906 11.906739-18.500217 32.327793-29.547337 54.624658-29.547337L851.721208 423.968164c53.60949 0 64.093765-21.374822 64.093765-58.281107C915.814973 300.156501 869.080383 161.328123 843.970315 86.73371z"  horiz-adv-x="1025" />

    
    <glyph glyph-name="yanzhengma" unicode="&#59164;" d="M535.912619 408.080441 535.912619 560.928618l103.370299 0c11.04659 0 19.999496 8.952906 19.999496 19.999496 0 11.04659-8.952906 19.999496-19.999496 19.999496L535.912619 600.927611 535.912619 712.921311l103.370299 0c11.04659 0 19.999496 8.952906 19.999496 19.999496 0 11.04659-8.952906 19.999496-19.999496 19.999496L535.912619 752.920304 535.912619 804.917562c0 11.04659-8.952906 19.999496-19.999496 19.999496-11.04659 0-19.999496-8.952906-19.999496-19.999496l0-396.83712c-120.800273-10.18599-215.989239-111.74299-215.989239-235.133252 0-130.126686 105.86205-235.988736 235.988736-235.988736s235.988736 105.86205 235.988736 235.988736C751.901859 296.337451 656.712893 397.894452 535.912619 408.080441zM515.913123-23.042553c-108.073414 0-195.990766 87.917352-195.990766 195.990766 0 108.069321 87.917352 195.990766 195.990766 195.990766s195.990766-87.921445 195.990766-195.990766C711.903889 64.874799 623.986537-23.042553 515.913123-23.042553z"  horiz-adv-x="1024" />

    
    <glyph glyph-name="kaoshishuoming" unicode="&#58881;" d="M512 894.402503C229.675641 894.402503 0.800879 665.52774 0.800879 383.203381s228.874763-511.199121 511.199121-511.199121c282.35764 0 511.199121 228.874763 511.199121 511.199121S794.35764 894.402503 512 894.402503zM512-64.09585c-247.013013 0-447.299231 200.252937-447.299231 447.299231s200.286218 447.299231 447.299231 447.299231c247.046294 0 447.299231-200.252937 447.299231-447.299231S759.046294-64.09585 512-64.09585zM581.291443 693.117849c-33.680567 0-61.004426-27.323859-61.004426-61.004426s27.323859-61.004426 61.004426-61.004426c33.713848 0 61.004426 27.323859 61.004426 61.004426C642.29587 665.827271 615.005292 693.117849 581.291443 693.117849zM489.801444 510.10457C445.470896 509.671914 428.797018 479.585716 428.797018 479.585716s60.53849-11.016075 61.004426-61.004426c0.432656-49.95507-121.110261-194.029354-122.008853-244.017706-0.898592-49.988352 78.210803-73.751123 114.38746-66.12973 44.596798 9.385296 68.62582 35.610876 68.62582 35.610876s-91.456718-10.450295-91.52328 30.518854c-0.033281 40.969148 122.607914 194.062635 122.008853 244.017706C580.692382 468.569641 534.098712 510.537225 489.801444 510.10457z"  horiz-adv-x="1024" />

    
    <glyph glyph-name="kao" unicode="&#58919;" d="M851.8144 895.0784 170.3936 895.0784C76.288 895.0784 0 818.8416 0 724.736l0-681.4208c0-94.1056 76.288-170.3936 170.3936-170.3936l681.4208 0c94.0544 0 170.3424 76.288 170.3424 170.3936L1022.1568 724.736C1022.1568 818.8416 945.8688 895.0784 851.8144 895.0784zM913.1008 461.1072l-318.2592 0c-33.4848-22.4256-68.1472-45.824-103.8336-70.4l368.4864 0 0-60.3136L413.952 330.3936l-16.7424-73.6768 381.9008 0c-4.5056-71.4752-8.96-121.8048-13.4144-150.784-4.5056-75.8784-52.48-112.6912-144.0256-110.4896-11.2128 0-35.7376 0-73.6768 0-55.8592-2.2016-94.9248-3.3792-117.248-3.3792-2.2528 11.2128-5.5808 28.0064-10.0352 50.2784-2.2528 11.2128-4.5056 20.1216-6.7072 26.7776 62.5152-2.2016 123.9552-3.3792 184.2688-3.3792 13.5168-1.024 25.088-0.6656 35.4816 0.6144 37.0176 4.8128 51.712 49.4592 57.6 84.5312 0.2048 1.9968 0.4608 3.2256 0.7168 5.3248 2.2016 17.8176 3.328 30.1056 3.328 36.8128l-388.608 0 20.1216 107.2128c-31.2832-17.92-82.6368-43.52-154.112-77.0048l-63.6416 60.3136c142.8992 55.808 264.6528 114.9952 365.1584 177.6128l-351.744 0L122.5728 528.0768l281.3952 0L403.968 621.8752 189.4912 621.8752 189.4912 688.896l214.4256 0L403.9168 775.9872l80.384 0 0-87.0912 180.8896 0 0-67.0208L484.3008 621.8752l0-93.7984 87.0912 0c75.8784 53.5552 152.9344 119.4496 231.168 197.632l63.6416-43.5712c-60.3136-55.8592-120.576-107.2128-180.8896-154.0608l227.7888 0L913.1008 461.1072z"  horiz-adv-x="1024" />

    
    <glyph glyph-name="kaoshi" unicode="&#59025;" d="M658.285714-18.285714H365.714286c-40.228571 0-73.142857-32.914286-73.142857-73.142857v-36.571429h438.857142v36.571429c0 40.228571-32.914286 73.142857-73.142857 73.142857zM932.571429 786.285714h-73.142858V822.857143c0 40.228571-32.914286 73.142857-73.142857 73.142857H237.714286c-40.228571 0-73.142857-32.914286-73.142857-73.142857v-36.571429H91.428571c-40.228571 0-73.142857-32.914286-73.142857-73.142857v-146.285714c0-80.457143 65.828571-146.285714 146.285715-146.285714h18.285714c42.057143-126.171429 155.428571-221.257143 292.571428-235.885715V36.571429h73.142858v148.114285c137.142857 14.628571 250.514286 109.714286 292.571428 235.885715h18.285714c80.457143 0 146.285714 65.828571 146.285715 146.285714v146.285714c0 40.228571-32.914286 73.142857-73.142857 73.142857z m-557.714286-120.685714L457.142857 676.571429c5.485714 0 9.142857 3.657143 10.971429 7.314285l36.571428 73.142857c5.485714 10.971429 20.114286 10.971429 25.6 0l36.571429-73.142857c1.828571-3.657143 7.314286-7.314286 10.971428-7.314285l80.457143-10.971429c12.8-1.828571 16.457143-16.457143 9.142857-25.6l-58.514285-56.685714c-3.657143-3.657143-5.485714-9.142857-3.657143-12.8l14.628571-80.457143c1.828571-12.8-10.971429-21.942857-21.942857-16.457143l-73.142857 38.4c-3.657143 1.828571-9.142857 1.828571-14.628571 0l-73.142858-38.4c-10.971429-5.485714-23.771429 3.657143-21.942857 16.457143l14.628572 80.457143c0 5.485714 0 9.142857-3.657143 12.8L367.542857 640c-9.142857 7.314286-5.485714 23.771429 7.314286 25.6zM164.571429 493.714286c-40.228571 0-73.142857 32.914286-73.142858 73.142857v146.285714h73.142858v-219.428571z m768 73.142857c0-40.228571-32.914286-73.142857-73.142858-73.142857V713.142857h73.142858v-146.285714z"  horiz-adv-x="1024" />

    
    <glyph glyph-name="guanbi" unicode="&#58912;" d="M511.333 768.667c51.868 0 102.15-10.144 149.451-30.15 45.719-19.337 86.792-47.034 122.078-82.321 35.287-35.286 62.983-76.359 82.321-122.078 20.006-47.3 30.15-97.583 30.15-149.451s-10.144-102.15-30.15-149.451c-19.337-45.719-47.034-86.792-82.321-122.078-35.286-35.287-76.359-62.983-122.078-82.321-47.3-20.006-97.583-30.15-149.451-30.15s-102.15 10.144-149.451 30.15c-45.719 19.337-86.792 47.034-122.078 82.321-35.287 35.286-62.983 76.359-82.321 122.078-20.006 47.3-30.15 97.583-30.15 149.451s10.144 102.15 30.15 149.451c19.337 45.719 47.034 86.792 82.321 122.078 35.286 35.287 76.359 62.983 122.078 82.321 47.301 20.006 97.583 30.15 149.451 30.15m0 64c-247.424 0-448-200.576-448-448s200.576-448 448-448 448 200.576 448 448-200.576 448-448 448zM557.254 384l147.373 147.373c12.497 12.497 12.497 32.758 0 45.255-12.496 12.497-32.758 12.497-45.254 0L512 429.254 364.627 576.627c-12.497 12.497-32.758 12.497-45.255 0s-12.497-32.758 0-45.255L466.746 384 319.373 236.627c-12.497-12.496-12.497-32.758 0-45.254C325.621 185.124 333.811 182 342 182s16.379 3.124 22.627 9.373L512 338.746l147.373-147.373C665.621 185.124 673.811 182 682 182s16.379 3.124 22.627 9.373c12.497 12.496 12.497 32.758 0 45.254L557.254 384z"  horiz-adv-x="1024" />

    
    <glyph glyph-name="bangzhu" unicode="&#58913;" d="M511.333 832.667c-247.424 0-448-200.576-448-448s200.576-448 448-448 448 200.576 448 448-200.576 448-448 448z m271.529-719.529c-35.286-35.287-76.359-62.983-122.078-82.321-47.3-20.006-97.583-30.15-149.451-30.15-51.868 0-102.15 10.144-149.451 30.15-45.719 19.337-86.792 47.034-122.078 82.321-35.287 35.286-62.983 76.359-82.321 122.078-20.006 47.3-30.15 97.583-30.15 149.451s10.144 102.15 30.15 149.451c19.337 45.719 47.034 86.792 82.321 122.078 35.286 35.287 76.359 62.983 122.078 82.321 47.3 20.006 97.583 30.15 149.451 30.15 51.868 0 102.15-10.144 149.451-30.15 45.719-19.337 86.792-47.034 122.078-82.321 35.287-35.286 62.983-76.359 82.321-122.078 20.006-47.3 30.15-97.583 30.15-149.451s-10.144-102.15-30.15-149.451c-19.337-45.719-47.034-86.792-82.321-122.078zM642.045 610.371c-26.482 39.772-72.632 61.676-129.945 61.676-45.43 0-81.73-14.938-107.891-44.4-21.679-24.415-34.958-57.378-39.469-97.974-3.153-28.378-0.747-50.163-0.462-52.553 2.091-17.549 18.02-30.084 35.56-27.991 17.549 2.09 30.081 18.011 27.991 35.56-0.019 0.161-1.845 16.636 0.52 37.916 2.077 18.688 7.877 44.708 23.717 62.547 13.679 15.406 33.317 22.895 60.034 22.895 35.722 0 62.235-11.462 76.675-33.147 15.268-22.93 14.215-52.064 6.398-70.765-4.475-10.704-25.708-30.276-42.77-46.002-35.924-33.111-73.07-67.349-73.07-108.723v-61.457c0-17.673 14.327-32 32-32s32 14.327 32 32V349.41c0 0.684 0.354 7.103 12.607 21.925 10.498 12.696 25.413 26.444 39.837 39.739 24.981 23.025 48.576 44.774 58.443 68.379 8.323 19.912 11.834 42.319 10.153 64.799-1.794 24.014-9.516 46.877-22.328 66.119zM512.099 193.035m-40 0a40 40 0 1 1 80 0 40 40 0 1 1-80 0Z"  horiz-adv-x="1024" />

    
    <glyph glyph-name="kaiguan" unicode="&#58914;" d="M652.899 706.734c-16.036 7.058-34.761-0.22-41.82-16.258-7.059-16.038 0.221-34.761 16.258-41.819 104.649-46.06 172.27-149.682 172.27-263.991 0-77-29.986-149.392-84.434-203.839s-126.839-84.434-203.839-84.434-149.393 29.986-203.84 84.434c-54.448 54.447-84.433 126.839-84.433 203.839 0 114.963 68.159 218.821 173.642 264.591 16.075 6.975 23.451 25.659 16.477 41.733-6.975 16.075-25.662 23.452-41.734 16.477-128.688-55.837-211.839-182.544-211.839-322.8 0-47.469 9.304-93.535 27.653-136.917 17.717-41.887 43.073-79.499 75.365-111.791 32.292-32.291 69.903-57.647 111.791-75.364 43.383-18.35 89.449-27.653 136.918-27.653 47.468 0 93.535 9.304 136.917 27.653 41.888 17.717 79.499 43.073 111.791 75.364 32.291 32.292 57.647 69.904 75.364 111.791 18.35 43.383 27.653 89.448 27.653 136.917 0.001 139.458-82.493 265.877-210.16 322.067zM512 416.483c17.522 0 31.727 14.205 31.727 31.727V767.772c0 17.522-14.204 31.727-31.727 31.727s-31.727-14.205-31.727-31.727V448.21c0-17.522 14.205-31.727 31.727-31.727z"  horiz-adv-x="1024" />

    
    <glyph glyph-name="shaixuan" unicode="&#58915;" d="M576.111-31.64c-4.956 0-9.922 1.15-14.485 3.467l-128.026 65a32 32 0 0 0-17.513 28.533V398.317L165.184 649.221a32 32 0 0 0 22.627 54.627h640.857a32 32 0 0 0 22.627-54.627L608.112 406.037V0.36a31.997 31.997 0 0 0-32.001-32z m-96.024 116.642l64.025-32.507V419.292a31.996 31.996 0 0 0 9.373 22.627l197.928 197.929H265.066L470.714 434.2a32.001 32.001 0 0 0 9.373-22.627v-326.571z"  horiz-adv-x="1024" />

    
    <glyph glyph-name="tixing" unicode="&#58916;" d="M891.851 82.284L814 194.439V484.127c0 61.969-24.132 120.229-67.951 164.048-43.82 43.82-102.079 67.952-164.049 67.952h-38V743c0 17.673-14.327 32-32 32s-32-14.327-32-32v-26.873h-38c-61.97 0-120.23-24.132-164.049-67.952C234.132 604.356 210 546.096 210 484.127v-289.688l-77.85-112.155a31.999 31.999 0 0 1 26.288-50.247h245.508C416.92-15.461 460.444-50.48 512-50.48s95.08 35.019 108.054 82.518h245.508a32 32 0 0 1 26.289 50.246zM512 13.52c-15.359 0-29.045 7.259-37.837 18.518h75.675c-8.792-11.259-22.479-18.518-37.838-18.518z m-292.396 82.517l48.684 70.138A32.002 32.002 0 0 1 274 184.422V484.127c0 92.636 75.364 168 168 168h140c92.636 0 168-75.364 168-168v-299.705a32.002 32.002 0 0 1 5.712-18.247l48.686-70.138H219.604z"  horiz-adv-x="1024" />

    
    <glyph glyph-name="yonghu" unicode="&#58917;" d="M512 448.777c-88.224 0-160 71.776-160 160s71.776 160 160 160c88.225 0 160-71.776 160-160s-71.775-160-160-160z m0 256c-52.935 0-96-43.065-96-96s43.065-96 96-96 96 43.065 96 96-43.065 96-96 96zM454.901 25.406c-96.594 0-184.933 3.802-231.263 49.955C203.308 95.614 193 121.836 193 153.299c0 31.629 10.247 62.812 30.457 92.686 17.978 26.573 42.908 50.741 74.098 71.833C359.256 359.54 437.418 383.47 512 383.47c74.55 0 152.55-23.943 214.002-65.691 31.05-21.094 55.861-45.273 73.746-71.867C819.822 216.063 830 184.904 830 153.299c0-31.552-10.317-57.827-30.664-78.097-50.714-50.521-151.822-50.128-258.88-49.723a7395.45 7395.45 0 0 1-56.914 0.001c-9.605-0.037-19.163-0.074-28.641-0.074zM512 89.553c9.567 0 19.149-0.037 28.701-0.073 49.52-0.191 96.284-0.37 135.808 4.396 38.418 4.633 64.546 13.604 77.659 26.668 5.079 5.06 11.832 13.96 11.832 32.755 0 38.089-27.688 78.744-75.963 111.54C638.933 299.558 574.04 319.47 512 319.47c-126.309 0-255-83.862-255-166.171 0-18.675 6.738-27.547 11.807-32.596 32.045-31.922 128.975-31.55 214.491-31.224 9.556 0.037 19.139 0.074 28.702 0.074z"  horiz-adv-x="1024" />

    
    <glyph glyph-name="USB" unicode="&#58935;" d="M896.101 448c-23.685 0-44.349-12.876-55.417-32H382.877v70.21h73.908c11.134-18.86 31.654-31.52 55.141-31.52 35.346 0 64 28.654 64 64 0 35.346-28.654 64-64 64-23.883 0-44.695-13.091-55.692-32.48H350.877c-17.673 0-32-14.327-32-32V416H249.06c-14.229 35.207-48.729 60.05-89.035 60.05-53.019 0-96-42.981-96-96s42.981-96 96-96c43.26 0 79.832 28.616 91.832 67.95h228.456v-101.956c0-17.673 14.327-32 32-32H647.66c11.118-18.922 31.672-31.633 55.206-31.633 35.346 0 64 28.654 64 64 0 35.346-28.654 64-64 64-23.836 0-44.613-13.041-55.628-32.367H544.313V352h296.371c11.067-19.124 31.732-32 55.417-32 35.346 0 64 28.654 64 64 0 35.346-28.653 64-64 64z"  horiz-adv-x="1024" />

    
    <glyph glyph-name="shijian" unicode="&#58936;" d="M511.333 768.667c51.868 0 102.15-10.144 149.451-30.15 45.719-19.337 86.792-47.034 122.078-82.321 35.287-35.286 62.983-76.359 82.321-122.078 20.006-47.3 30.15-97.583 30.15-149.451s-10.144-102.15-30.15-149.451c-19.337-45.719-47.034-86.792-82.321-122.078-35.286-35.287-76.359-62.983-122.078-82.321-47.3-20.006-97.583-30.15-149.451-30.15s-102.15 10.144-149.451 30.15c-45.719 19.337-86.792 47.034-122.078 82.321-35.287 35.286-62.983 76.359-82.321 122.078-20.006 47.3-30.15 97.583-30.15 149.451s10.144 102.15 30.15 149.451c19.337 45.719 47.034 86.792 82.321 122.078 35.286 35.287 76.359 62.983 122.078 82.321 47.301 20.006 97.583 30.15 149.451 30.15m0 64c-247.424 0-448-200.576-448-448s200.576-448 448-448 448 200.576 448 448-200.576 448-448 448zM702.856 352.667H511.333c-17.673 0-32 14.326-32 32v286.73c0 17.673 14.327 32 32 32s32-14.327 32-32v-254.73h159.522c17.673 0 32-14.327 32-32s-14.326-32-31.999-32z"  horiz-adv-x="1024" />

    
    <glyph glyph-name="shouye" unicode="&#58938;" d="M98.033 415.789c-10.115 0-20.065 4.783-26.285 13.712-10.102 14.501-6.536 34.446 7.966 44.548l414.033 288.425a32.003 32.003 0 0 0 37.505-0.667l384.137-288.424c14.133-10.612 16.987-30.671 6.376-44.804s-30.67-16.988-44.804-6.375L511.335 696.728l-395.04-275.193a31.845 31.845 0 0 0-18.262-5.746zM831.241-31.64H608.515c-17.673 0-32 14.327-32 32V224.035H448.118V0.36c0-17.673-14.327-32-32-32H188.589c-17.673 0-32 14.327-32 32V382.833c0 17.673 14.327 32 32 32s32-14.327 32-32V32.36h163.529V256.035c0 17.673 14.327 32 32 32h192.397c17.673 0 32-14.327 32-32V32.36h158.727V382.833c0 17.673 14.327 32 32 32s32-14.327 32-32V0.36c-0.001-17.672-14.328-32-32.001-32z"  horiz-adv-x="1024" />

    
    <glyph glyph-name="shuju01" unicode="&#58939;" d="M351.041 65.198H160.037V353.101H351.04v-287.903z m-127.004 64h63.003V289.101h-63.003v-159.903zM606.835 65.198H415.832V544.21h191.003v-479.012z m-127.003 64h63.003V480.21h-63.003v-351.012zM864.598 65.198H673.594V705.216h191.004v-640.018z m-127.004 64h63.004V641.216h-63.004v-512.018z"  horiz-adv-x="1024" />

    
    <glyph glyph-name="biaoqian" unicode="&#58941;" d="M920.528912 451.50384l-340.111125 340.114737a135.932464 135.932464 0 0 1-96.155899 39.758503L200.418112 831.337343h-0.018063C125.275769 831.337343 64.301413 770.59057 64.301413 695.451841v-283.673992a136.091412 136.091412 0 0 1 39.881326-96.199248l340.230335-340.241173a136.022775 136.022775 0 0 1 192.369598 0l283.74624 283.76069c53.128139 53.131752 53.128139 139.277583 0 192.405722z m-45.209673-147.192436l-283.746241-283.760691a72.064544 72.064544 0 0 0-101.924964 0l-340.212273 340.241173A72.187367 72.187367 0 0 0 128.241582 411.781462V695.451841A72.021195 72.021195 0 0 0 200.396437 767.397174l283.843776 0.039737a71.887535 71.887535 0 0 0 50.935389-21.053294l340.114737-340.1039a72.104281 72.104281 0 0 0 0.0289-101.968313zM384.002258 640.000903c-70.69543 0-128.003161-57.307731-128.003161-128.003161S313.306828 384.001806 384.002258 384.001806s127.999548 57.307731 127.999548 127.999549S454.690463 640.000903 384.002258 640.000903z m45.296371-173.29592a64.059379 64.059379 0 1 0 18.759396 45.292759 63.640337 63.640337 0 0 0-18.763008-45.292759z"  horiz-adv-x="1024" />

    
    <glyph glyph-name="chakan" unicode="&#58942;" d="M607.839811 0.042898H214.69447A86.82497 86.82497 0 0 0 127.880338 86.929279V681.215219A86.839419 86.839419 0 0 0 214.69447 768.119662h594.28594a86.33729 86.33729 0 0 0 61.436749-25.456857c16.400473-16.400473 25.362934-38.208767 25.373771-61.411462L894.439878 288.178251v-0.10476a32.031496 32.031496 0 0 1 64.059379-0.101149L959.825022 681.110458v0.104761A150.775976 150.775976 0 0 1 808.98041 832.059831H214.69447A150.638703 150.638703 0 0 1 63.940169 681.215219v-594.28594a150.638703 150.638703 0 0 1 150.757914-150.82655h393.141728a31.970084 31.970084 0 0 1 0 63.940169zM950.544667-9.331381l-122.071536 122.071536a192.217875 192.217875 0 1 1-45.213286-45.213286l122.071536-122.071536a31.970084 31.970084 0 0 1 45.213286 45.213286z m-278.547941 105.302594a128.028448 128.028448 0 1 0 90.531332 37.497116 127.193975 127.193975 0 0 0-90.527719-37.497116zM768.004516 543.787205c17.653989 0 31.966472 14.402794 31.970084 32.056783s-14.308871 32.074845-31.966472 32.078457L256.002709 608.088618a32.020659 32.020659 0 0 1-31.970084-32.024271c0-17.657601 14.308871-32.092907 31.966472-32.092908L768.004516 543.787205zM448.000226 351.966698a31.96286 31.96286 0 1 1 0 63.940169h-192.001129a31.937573 31.937573 0 1 1 0-63.878758l192.001129-0.061411zM256.017159 224.08636a31.959247 31.959247 0 1 1 0-63.922107l127.999549-0.018062a31.941185 31.941185 0 1 1 0 63.878757z"  horiz-adv-x="1024" />

    
    <glyph glyph-name="shenqingquanxian" unicode="&#58944;" d="M924.17025 637.55167h0.04335c-55.093306 0-103.987667 35.705346-121.41046 88.638413l-5.639017 17.198822C779.74133 796.325585 730.836131 832.059831 675.742825 832.059831H348.239112c-55.093306 0-104.009342-35.734246-121.432134-88.667313L221.175186 726.215371C203.741555 673.271466 154.836357 637.558894 99.743051 637.558894H99.703314c-19.738366 0-35.763145-16.209013-35.763145-36.20025V118.964387h0.469617l397.129861-172.493959a126.731582 126.731582 0 0 1 100.920706 0L959.590214 118.964387h0.234808V601.355031c0 19.991237-15.916406 36.196638-35.654772 36.196639zM895.884854 161.139612l-358.989731-155.992338a62.495193 62.495193 0 0 0-49.931131 0L127.880338 161.139612V575.703103a187.991322 187.991322 0 0 1 31.699152 7.557222 192.21065 192.21065 0 0 1 94.609775 68.997583 193.821798 193.821798 0 0 1 27.714631 53.944551L287.550138 723.401281C296.357265 750.129716 320.748452 768.119662 348.239112 768.119662h327.503713c27.50511 0 51.89991-17.989946 60.688974-44.718381l5.649855-17.187985A193.312444 193.312444 0 0 1 811.715027 610.378904a190.660914 190.660914 0 0 1 52.586273-27.118579 195.34986 195.34986 0 0 1 31.583554-7.557222v-414.563491zM511.998194 640.000903c-141.383635 0-255.999097-114.615462-255.999097-255.999097S370.614559 127.995484 511.998194 127.995484 768.004516 242.614559 768.004516 384.001806s-114.619075 255.999097-256.006322 255.999097z m177.009507-330.736846a192.904239 192.904239 0 1 0 15.056646 74.737749 191.936105 191.936105 0 0 0-15.071096-74.741361zM596.052423 470.606417l-105.392906-105.392906-62.726389 62.72639a31.970084 31.970084 0 0 1-45.213286-45.213286l85.333032-85.333032a31.970084 31.970084 0 0 1 45.213286 0l127.999548 127.999548A31.970084 31.970084 0 0 1 596.052423 470.606417z"  horiz-adv-x="1024" />

    
    <glyph glyph-name="weixiao" unicode="&#58945;" d="M511.998194 831.99842c-247.423167 0-447.996613-200.573446-447.996614-447.996614S264.575027-63.99842 511.998194-63.99842s448.000226 200.577059 448.000226 448.000226S759.421361 831.99842 511.998194 831.99842zM865.90161 234.526308a382.654818 382.654818 0 1 0 22.35016 72.003133A383.930009 383.930009 0 0 0 865.90161 234.526308zM383.821636 511.972455a31.970084 31.970084 0 0 1 31.970084 31.970085V607.940508a31.970084 31.970084 0 0 1-63.940169 0v-63.997968a31.970084 31.970084 0 0 1 31.970085-31.970085zM639.943556 511.972455a31.970084 31.970084 0 0 1 31.970084 31.970085V607.940508a31.970084 31.970084 0 0 1-63.940169 0v-63.997968a31.970084 31.970084 0 0 1 31.970085-31.970085zM799.999887 415.971891a31.970084 31.970084 0 0 1-31.970084-31.970085 256.027996 256.027996 0 1 0-512.059606 0 31.970084 31.970084 0 0 1-63.940169 0 319.968165 319.968165 0 1 1 639.939944 0 31.970084 31.970084 0 0 1-31.970085 31.970085z"  horiz-adv-x="1024" />

    
    <glyph glyph-name="xitongzhuangtai" unicode="&#58946;" d="M959.825022 704.060283C959.825022 774.7521 902.517291 832.059831 831.825474 832.059831H191.939717C121.2479 832.059831 63.940169 774.7521 63.940169 704.060283v-639.885757C63.940169-6.517291 121.2479-63.825022 191.939717-63.825022h639.885757c70.691817 0 127.999548 57.307731 127.999548 127.999548V704.060283zM146.715595 749.33498a63.839021 63.839021 0 0 0 45.372232 18.784682h639.824346A64.037705 64.037705 0 0 0 895.884854 703.998871V415.906867s0.0289 0 0 0h-50.527184l-54.764574 54.710387a31.970084 31.970084 0 0 1-52.933067-12.506263L698.078535 339.323162l-93.482694 186.965389a31.970084 31.970084 0 0 1-58.279477-2.423947l-93.269561-233.168483-102.307883 358.086621a31.970084 31.970084 0 0 1-59.330697 5.519807l-119.264671-238.269247L127.880338 415.906867V703.998871A63.777609 63.777609 0 0 0 146.715595 749.33498z m730.43515-730.536299a63.456102 63.456102 0 0 0-45.253022-18.67631H192.087827c-17.112123 0-33.270563 6.574639-45.372232 18.67631S127.880338 46.889006 127.880338 64.001129V351.966698l64.135241 0.180622a32.024271 32.024271 0 0 1 28.538267 17.668439l91.261045 182.395653L417.236696 183.218838a31.977309 31.977309 0 0 1 29.112645-23.144896q0.823636-0.043349 1.64366-0.043349a31.973697 31.973697 0 0 1 29.676186 20.095998l101.560108 253.900269 96.163124-192.322635a31.970084 31.970084 0 0 1 58.926104 4.186816l47.651681 142.951433 27.552072-27.523172a31.970084 31.970084 0 0 1 22.60303-9.352604H895.884854c0.0289 0 0 0 0 0v-287.965569a63.398303 63.398303 0 0 0-18.719659-45.209673z"  horiz-adv-x="1024" />

    
    <glyph glyph-name="shuzi" unicode="&#58947;" d="M832.038608 831.337343H192.030028C121.255125 831.337343 63.940169 774.01155 63.940169 703.305283v-446.793671C63.940169 185.794507 121.255125 128.356728 192.030028 128.356728h133.353183a63.940169 63.940169 0 0 0 55.219742-31.576328l76.099638-129.83828c12.358154-21.093031 33.790754-31.626903 55.216129-31.626903s42.832688 10.544709 55.198067 31.619678l76.222461 129.870792a63.940169 63.940169 0 0 0 55.212517 31.551041h133.54103c70.576219 0 127.732228 57.289669 127.732227 127.800865V703.608728C959.825022 774.14521 902.643727 831.337343 832.038608 831.337343zM895.884854 256.157593A63.85347 63.85347 0 0 0 832.092795 192.296897h-133.54103a127.753903 127.753903 0 0 1-110.349172-63.09847l-76.222461-129.856342a0.274545 0.274545 0 0 0 0 0.050574h-0.032512s-0.021675-0.061411-0.032512-0.061412l-76.1466 129.85273A127.804477 127.804477 0 0 1 325.383211 192.296897H192.030028A64.207489 64.207489 0 0 0 127.880338 256.511612V703.305283A64.102729 64.102729 0 0 0 192.030028 767.397174h640.00858A63.799284 63.799284 0 0 0 895.884854 703.608728v-447.451135zM608.154093 607.907996A31.970084 31.970084 0 0 1 576.184009 575.937911v-160.078006l-134.650049 179.278119A31.970084 31.970084 0 0 1 384.002258 575.937911v-255.760676a31.970084 31.970084 0 0 1 63.940169 0v159.958796l134.650048-179.274507a31.970084 31.970084 0 0 1 57.531703 19.200113V575.937911a31.970084 31.970084 0 0 1-31.970085 31.970085z"  horiz-adv-x="1024" />

    
    <glyph glyph-name="shujubiangeng" unicode="&#58948;" d="M927.854938 479.998758a31.973697 31.973697 0 0 1-31.970084-31.998984v-351.999661A95.805493 95.805493 0 0 0 799.999887 0.115146H224.000113c-25.648316 0-49.808308 9.930595-67.942751 28.061426s-28.177024 42.182449-28.177024 67.823541V671.999887A96.202861 96.202861 0 0 0 224.000113 768.119662h351.999661a31.970084 31.970084 0 1 1 0 63.940169H224.000113A160.031044 160.031044 0 0 1 63.940169 671.999887v-575.999774A159.702312 159.702312 0 0 1 224.000113-63.825022h575.999774A159.445829 159.445829 0 0 1 959.825022 96.000113v351.999661a31.973697 31.973697 0 0 1-31.970084 31.998984zM372.547214 445.655301a146.195403 146.195403 0 0 1 31.959247-158.687217l9.601863-9.616312A145.808872 145.808872 0 0 1 517.564962 234.562433h0.054187a145.667987 145.667987 0 0 1 103.427739 42.74599l296.089944 296.006858a146.180954 146.180954 0 0 1 0.679138 206.208851l-8.839638 8.951623a146.195403 146.195403 0 0 1-207.292583 0.93201l-296.855781-295.360232a145.400667 145.400667 0 0 1-32.280754-48.392232z m77.425403 3.027224l296.855782 295.360232A81.724206 81.724206 0 0 0 804.851393 768.000452h0.382918a81.735043 81.735043 0 0 0 58.192779-24.481499l8.839638-8.955236a82.291359 82.291359 0 0 0-0.375694-115.999026l-296.089944-295.992409a81.716981 81.716981 0 0 0-58.181941-24.06968h-0.0289a81.691694 81.691694 0 0 0-58.192778 24.105805l-9.601863 9.601862a82.273297 82.273297 0 0 0 0.177009 116.472256zM384.002258 256.027545c-22.910088 22.9137-51.177422 33.173027-78.81258 33.173026-57.820697 0-113.369171-44.891779-113.369171-112.708094C191.820507 114.398264 242.344078 64.055315 304.45274 64.055315c100.201831 0 150.39667 121.121465 79.549518 191.979455z m-34.701089-98.095779c-3.681075-8.879375-9.562126-16.346286-17.007362-21.59516-7.875117-5.548706-17.238559-8.359184-27.81578-8.359184a48.525892 48.525892 0 0 0-48.536729 48.529505c0 7.369375 1.369114 14.186048 4.067606 20.26217a45.336109 45.336109 0 0 0 10.591671 14.778487 51.354432 51.354432 0 0 0 34.679414 13.727268c12.643536 0 23.925183-4.85873 33.505371-14.449755 7.488586-7.492198 12.119733-16.10064 13.763392-25.59413 1.553349-8.980523 0.42988-18.419826-3.247583-27.299201z"  horiz-adv-x="1024" />

    
    <glyph glyph-name="xiaofeimingxidan" unicode="&#58949;" d="M959.825022 661.050585C959.825022 755.4978 883.262992 832.059831 788.815776 832.059831H234.949415C140.5022 832.059831 63.940169 755.4978 63.940169 661.050585v-553.866361C63.940169 12.737008 140.5022-63.825022 234.949415-63.825022h553.866361c94.443603 0 171.009246 76.562031 171.009246 171.009246V661.050585z m-63.940168-554.039758c0-28.599679-11.050451-55.400363-31.272884-75.622797S817.588852 0.115146 788.989173 0.115146H235.007214c-28.599679 0-55.515961 11.050451-75.738394 31.272884S127.880338 78.411148 127.880338 107.010827V660.992786A107.170226 107.170226 0 0 0 235.007214 768.119662h553.981959c28.599679 0 55.400363-11.166049 75.622797-31.388482S895.884854 689.592465 895.884854 660.992786v-553.981959zM799.999887 606.643642H224.000113a31.970084 31.970084 0 0 1 0-63.940169h575.999774a31.970084 31.970084 0 0 1 0 63.940169zM799.999887 415.906867H224.000113a31.970084 31.970084 0 1 1 0-63.940169h575.999774a31.970084 31.970084 0 1 1 0 63.940169zM799.999887 225.170092H224.000113a31.970084 31.970084 0 0 1 0-63.940169h575.999774a31.970084 31.970084 0 0 1 0 63.940169z"  horiz-adv-x="1024" />

    
    <glyph glyph-name="app" unicode="&#58950;" d="M271.958852 831.99842c-115.276539 0-208.874831-93.670541-208.874831-208.950693C63.084021 507.662816 156.628127 414.100647 272.016651 414.100647h144.894925c35.347715 0 63.918494 28.762239 63.918495 64.106342V623.105526c-0.01445 115.36685-93.500757 208.892893-208.871219 208.892894zM416.875452 478.206989v-0.025288a0.932009 0.932009 0 0 0 0.043349-0.144497H272.016651a145.241719 145.241719 0 1 0 144.858801 145.06471v-144.894925zM416.897127 353.772917H272.016651c-115.370462 0-208.896506-93.515206-208.896506-208.885668 0-115.276539 93.562168-208.892893 208.856769-208.892893 115.370462 0 208.856769 93.529656 208.856769 208.900118v144.894925c-0.018062 35.351327-28.592454 63.983518-63.936556 63.983518z m-0.021675-208.874831a144.721528 144.721528 0 0 0-88.483079-133.504905C310.564987 3.854021 291.59607 0.115146 272.016651 0.115146c-19.564969 0-38.519436 3.738874-56.354047 11.28526A144.880476 144.880476 0 0 0 272.016651 289.832748h144.920212a0.093923 0.093923 0 0 1-0.043349 0v-144.920212zM751.101914 353.772917h-144.894925A63.965456 63.965456 0 0 1 542.227083 289.793011v-144.894925c0-115.370462 93.515206-208.896506 208.885668-208.896506 115.276539 0 208.892893 93.60913 208.892893 208.885669-0.003612 115.370462-93.533269 208.885668-208.90373 208.885668zM884.686293 88.551264a144.927437 144.927437 0 0 0-278.519041 56.354047V289.832748h144.920212A144.996074 144.996074 0 0 0 884.686293 88.551264zM606.206989 414.100647h144.894925c115.370462 0 208.896506 93.562168 208.896506 208.950693 0 115.276539-93.60913 208.921793-208.885669 208.921792-115.370462 0-208.885668-93.497144-208.885668-208.867606v-144.894925c0-35.347715 28.632191-64.109954 63.979906-64.109954z m-0.039737 209.004879A144.949112 144.949112 0 1 0 751.101914 478.040816H606.167252a0.520191 0.520191 0 0 0 0 0.144498V623.105526z"  horiz-adv-x="1024" />

    
    <glyph glyph-name="SQLshenhe" unicode="&#58951;" d="M575.764966 0.115146H223.765304A95.805493 95.805493 0 0 0 127.880338 96.000113V671.999887c0 25.648316 9.930595 49.808308 28.061426 67.942751s42.182449 28.177024 67.82354 28.177024h575.999775A96.202861 96.202861 0 0 0 895.884854 671.999887v-351.999661a31.970084 31.970084 0 1 1 63.940168 0V671.999887A160.031044 160.031044 0 0 1 799.765079 832.059831H223.765304A159.702312 159.702312 0 0 1 63.940169 671.999887v-575.999774A159.445829 159.445829 0 0 1 223.765304-63.825022h351.999662a31.970084 31.970084 0 1 1 0 63.940168zM925.376805 137.792419l-83.584612 83.584612a118.27125 118.27125 0 0 1-141.96885 19.221787 32.150706 32.150706 0 0 1-3.912271 4.750357L650.239007 291.024853a254.890078 254.890078 0 0 1 53.767541 156.978534c0 141.383635-114.615462 255.999097-255.999097 255.999097S192.001129 589.387021 192.001129 447.999774s114.615462-255.999097 255.999097-255.999097A254.890078 254.890078 0 0 1 604.975147 245.760993l45.675678-45.675677a32.150706 32.150706 0 0 1 4.750357-3.912272c-25.648316-45.108525-19.250687-103.499988 19.221787-141.968849l83.584612-83.584612a118.206227 118.206227 0 0 1 167.169224 0c46.163357 46.166969 46.163357 121.013092 0 167.172836zM522.719913 271.048066a191.66156 191.66156 0 0 0-182.019961 17.700951 192.745291 192.745291 0 0 0-69.633372 84.53107 191.66156 191.66156 0 0 0 17.70095 182.019961 192.745291 192.745291 0 0 0 84.531071 69.633372 191.66156 191.66156 0 0 0 182.01996-17.70095 192.745291 192.745291 0 0 0 69.633373-84.531071 191.66156 191.66156 0 0 0-17.700951-182.01996A192.745291 192.745291 0 0 0 522.719913 271.048066z m357.407482-255.186298a54.208259 54.208259 0 0 0-76.659567 0L719.875992 99.457217A54.208259 54.208259 0 0 0 796.542783 176.124008l83.584612-83.584612a54.208259 54.208259 0 0 0-0.007225-76.659566z"  horiz-adv-x="1024" />

    
    <glyph glyph-name="text" unicode="&#58952;" d="M799.999887 606.643642H224.000113a31.970084 31.970084 0 0 1 0-63.940169h575.999774a31.970084 31.970084 0 0 1 0 63.940169zM799.999887 415.906867H224.000113a31.970084 31.970084 0 1 1 0-63.940169h575.999774a31.970084 31.970084 0 1 1 0 63.940169zM799.999887 225.170092H224.000113a31.970084 31.970084 0 0 1 0-63.940169h575.999774a31.970084 31.970084 0 0 1 0 63.940169zM948.041247 739.85594A150.750689 150.750689 0 0 1 809.164645 832.059831h-0.278158l-73.444496-1.325765a31.988147 31.988147 0 0 1 1.112631-63.965456l72.866506 1.260741a86.124156 86.124156 0 0 0 61.100792-25.449632c16.41131-16.41131 25.366546-38.234054 25.366546-61.440361v-594.278716c0-23.206308-8.955236-44.956802-25.366546-61.368112a86.059133 86.059133 0 0 0-61.357275-25.377384H214.835355c-23.206308 0-45.061563 8.969686-61.472873 25.377384A86.18918 86.18918 0 0 0 127.880338 86.860642V681.139358a86.94418 86.94418 0 0 0 86.940568 86.882768h73.173562a31.970084 31.970084 0 1 1 0 63.940169H214.835355A150.82655 150.82655 0 0 1 63.940169 681.139358v-594.278716A150.598966 150.598966 0 0 1 214.835355-63.825022h594.32929A150.328033 150.328033 0 0 1 959.825022 86.860642V681.139358a149.836742 149.836742 0 0 1-11.783775 58.716582zM415.997629 768.119662h192.001129a31.970084 31.970084 0 0 1 0 63.940169h-192.001129a31.970084 31.970084 0 0 1 0-63.940169z"  horiz-adv-x="1024" />

    
    <glyph glyph-name="shipin" unicode="&#58940;" d="M511.999744 895.999488C228.710286 895.999488 0 667.289202 0 383.999744s229.580685-511.999744 511.999744-511.999744 511.999744 229.478285 511.999744 511.948544A511.385344 511.385344 0 0 1 511.999744 895.999488z m0-947.813926c-240.84468 0-435.762982 194.918303-435.762982 435.762982S271.155064 819.711526 511.999744 819.711526c240.84468 0 435.762982-194.918303 435.762982-435.762982S752.844424-51.814438 511.999744-51.814438z m195.788702 471.295764l-264.191868 152.473524c-26.879987 15.615992-61.542369-4.351998-61.542369-35.532782v-305.817447c0-31.180784 33.791983-51.097574 61.542369-35.481583l264.191868 152.524724c26.879987 16.332792 26.879987 56.268772 0 71.833564z"  horiz-adv-x="1024" />

    
    <glyph glyph-name="quiz" unicode="&#58977;" d="M545.859 432.935c-9.528-1.033-17.588-15.623-21.248-16.010-2.933-0.322-4.128 3.998-4.371 6.19-61.925-44.109-85.237-99.232-83.351-137.182 0.386-6.998 4.143-28.087 14.397-26.972 10.995 1.177 32.921 17.635 40.514 26.23l32.323 36.838c14.172 19.684 40.595 66.633 37.984 90.8-0.837 7.69-5.996 21.218-16.25 20.105zM643.801 308.279c0.386-6.996 4.144-28.085 14.396-26.971 10.996 1.177 32.921 17.621 40.515 26.231l32.322 36.838c14.175 19.685 40.598 66.632 37.985 90.798-0.836 7.692-5.997 21.218-16.249 20.105-9.528-1.033-17.588-15.623-21.251-16.010-2.918-0.305-4.126 4.014-4.368 6.207-61.925-44.108-85.238-99.247-83.351-137.198zM836.577 782.1h-648.281c-23.678 0-42.874-19.195-42.874-42.874v-712.811c0-23.678 19.195-42.875 42.874-42.875h648.281c23.678 0 42.875 19.196 42.875 42.875v712.811c0 23.678-19.196 42.874-42.875 42.874zM783.966 481.994c0.436-4.030-8.352-4.983-10.641-7.82 17.040-3.354 20.846-21.458 22.425-36.113 7.594-70.308-45.771-173.136-133.344-188.903-33.424-6.205-56.797 24.99-60.152 56.122-4.481 41.371 16.976 89.639 40.837 122.592 28.391 38.999 81.336 73.628 105.147 76.192 15.011 1.628 34.857-14.010 35.727-22.071zM274.572 654.185c0 7.561 6.159 13.703 13.704 13.703h421.996c7.56 0 13.703-6.142 13.703-13.703v-1.613c0-7.56-6.142-13.704-13.703-13.704h-421.996c-7.546 0-13.688 6.143-13.704 13.704v1.613zM588.841 415.718c7.594-70.309-45.755-173.152-133.346-188.903-33.421-6.205-56.798 24.975-60.152 56.122-4.465 41.37 16.994 89.641 40.854 122.593 28.39 39 81.322 73.612 105.132 76.193 15.010 1.628 34.855-14.010 35.725-22.072 0.438-4.029-8.35-4.981-10.639-7.819 17.041-3.354 20.843-21.475 22.425-36.113zM274.572 581.245c0 7.56 6.159 13.703 13.704 13.703h210.151c7.561 0 13.703-6.141 13.703-13.703v-1.613c0-7.545-6.158-13.704-13.718-13.704h-210.135c-7.561 0-13.704 6.16-13.704 13.704v1.613zM231.252 227.797c-1.966 18.316 9.383 60.651 17.493 78.208 21.943 47.189 47.366 89.59 56.493 104.648l-0.806 0.661-33.357-16.944c-1.386-0.903-8.029-4.579-9.497-4.74-4.030-0.436-3.966 5.869-3.836 8.11-0.42 10.688 6.546 14.785 14.785 20.862 11.333 8.255 50.059 37.258 60.312 38.37 9.527 1.015 18.977-17.959 19.571-23.458 1.145-10.623 1.033-9.528-45.899-113.516-10.496-22.99-34.937-77.87-32.292-102.407 0.468-4.402 1.999-8.303 2.482-12.703 0.355-3.29-1.289-5.321-4.579-5.675-1.839-0.192-6.11 1.564-8.045 2.498-14.735 6.175-30.761 7.045-32.825 26.085zM251.841 106.897c-10.996 5.016 0 12.158 0 12.158s164.365 79.852 468.781 98.376c0 0-26.635-3.482-41.096-5.787 0 0 53.835 4.627 83.917 5.804 0 0-253.875-20.265-473.989-98.392-0.001 0-32.099-14.672-37.613-12.158zM332.289 96.999c0 0-32.098-14.672-37.613-12.158-10.995 5.016 0 12.158 0 12.158s164.366 79.868 468.781 98.392c0 0-26.634-3.466-41.094-5.787 0 0 53.815 4.626 83.917 5.787-0.001 0-253.875-20.266-473.991-98.392z"  horiz-adv-x="1024" />

    
    <glyph glyph-name="kaoshi1" unicode="&#58627;" d="M120.298 9.568c-3.256 4.868-5.681 10.361-7.274 16.411-1.593 6.119-2.425 12.378-2.425 18.845v501.518l254.775 197.575c3.187 4.52 5.265 8.345 6.096 12.795 0.762 4.451 0.416 8.901-1.247 13.352-1.593 4.451-4.018 7.927-7.205 10.361l-73.988 64.463h468.754c19.398 0 35.955-6.884 49.672-20.653s20.575-30.389 20.575-49.86v-223.513l50.919 49.86v173.653c0 33.24-12.123 62.029-36.37 86.368-2.425 2.434-4.849 4.659-7.274 6.676-2.425 2.017-4.849 4.242-7.274 6.676l-9.699 4.868c-2.425 2.434-5.265 4.033-8.452 4.868l-9.699 4.868c-3.256 0.765-6.651 1.808-10.322 3.060-3.672 1.182-7.066 2.017-10.322 2.434-3.256 0.417-6.651 0.834-10.322 1.182-3.533 0.417-7.413 0.626-11.431 0.626h-539.321l-2.425-1.182c-2.771-0.834-4.226-1.391-5.404-1.808-1.247-0.487-2.286-1.043-3.048-1.878l-6.027-7.302c-2.078-2.851-2.425-4.451-2.425-6.050l-136.961-340.27c-1.663-3.268-2.425-6.537-2.425-9.736v-482.951c0-33.24 11.916-61.821 35.747-85.742 23.831-23.922 52.304-35.882 85.418-35.882h134.536l18.151 51.042h-152.686c-19.398 0-35.955 6.884-49.672 20.723-4.087 4.868-7.69 9.736-10.946 14.603zM247.484 486.4h426.667v-51.2h-426.667v51.2zM571.75 366.933v-51.2h-324.267v51.2h324.267zM452.284 247.467v-51.2h-204.8v51.2h204.8zM247.484 605.867h494.933v-51.2h-494.933v51.2zM493.874 139.801l318.946 312.566c5.499 5.342 11.954 9.51 19.426 12.504s15.003 4.462 22.474 4.462c7.472 0 14.883-1.526 22.176-4.52 7.292-3.053 13.807-7.221 19.605-12.563l50.448-49.665c11.536-11.389 17.334-25.185 17.334-41.388s-5.858-29.999-17.394-41.329l-319.765-313.318-133.251 133.251zM457.183 103.843l-51.531-50.5-48.117-157.743-7.651-23.6 192.347 51.368 48.199 47.228-133.248 133.248zM820.502-3.241c-14.488-14.113-31.977-21.17-52.466-21.17h-118.541l-26.545-52.389h145.086c34.977 0 65.051 12.26 90.223 36.78s37.758 53.815 37.758 87.886v148.401l-53.783-51.106v-97.295c0-19.958-7.244-36.993-21.733-51.106z"  horiz-adv-x="1024" />

    
    <glyph glyph-name="zhushi" unicode="&#983888;" d="M513.022283 585.118554m-67.039859 0a67.039859 67.039859 0 1 1 134.079718 0 67.039859 67.039859 0 1 1-134.079718 0ZM468.329385 428.693922h89.385796v-312.850288h-89.385796zM513.022283 830.930005c-246.831688 0-446.928982-200.097294-446.928982-446.928982s200.097294-446.928982 446.928982-446.928982 446.928982 200.097294 446.928982 446.928982-200.096271 446.928982-446.928982 446.928982z m0-849.165066c-222.148519 0-402.236084 180.087565-402.236084 402.236084S290.873764 786.237107 513.022283 786.237107s402.236084-180.087565 402.236084-402.236084S735.171826-18.235061 513.022283-18.235061z"  horiz-adv-x="1024" />

    
    <glyph glyph-name="wode" unicode="&#983889;" d="M513.023306 494.933555m-149.158135 0a149.158135 149.158135 0 1 1 298.31627 0 149.158135 149.158135 0 1 1-298.31627 0ZM513.023306 830.540126c-247.133563 0-447.474404-200.340841-447.474404-447.474405S265.889743-64.408683 513.023306-64.408683s447.474404 200.340841 447.474405 447.474404S760.155846 830.540126 513.023306 830.540126z m272.202519-754.331188c4.88424 20.698414 7.468089 42.284035 7.468089 64.474431 0 100.883665-53.416584 189.292204-133.508714 238.484579-34.151821-43.062771-86.931908-70.681806-146.161894-70.681806s-112.010073 27.619034-146.162917 70.680783C286.767236 329.975573 233.351676 241.567034 233.351676 140.683369c0-22.189372 2.583848-43.776016 7.468088-64.474431-84.643796 75.140351-137.981584 184.76919-137.981584 306.85576 0 226.538503 183.6456 410.185126 410.185126 410.185127S923.207409 609.604224 923.207409 383.065721c0-122.086569-53.336766-231.716432-137.981584-306.856783z"  horiz-adv-x="1024" />

    
    <glyph glyph-name="jijianfasong-xianxing" unicode="&#59539;" d="M926.4 336L152 748.8c-11.2 5.6-24.8-3.2-23.2-15.2l60-714.4c0.8-11.2 12-17.6 22.4-13.6l249.6 104.8 136.8-155.2c8.8-9.6 24-5.6 27.2 6.4L689.6 208l235.2 99.2c12 4.8 12.8 22.4 1.6 28.8z m-688.8-266.4l-56 544 256-456-200-88z m-80 656l488-504-48-192m88 232l-400 384 560-320-160-64z"  horiz-adv-x="1024" />

    
    <glyph glyph-name="jijianfasong" unicode="&#59540;" d="M925.6 336.8L152 750.4c-11.2 5.6-24.8-3.2-23.2-15.2l60-714.4c0.8-11.2 12-17.6 22.4-13.6L460.8 112l136.8-155.2c8.8-9.6 24-5.6 27.2 6.4l65.6 245.6 235.2 99.2c11.2 5.6 12 22.4 0 28.8z m-328-305.6l-72 128-368 568 488-504-48-192z"  horiz-adv-x="1024" />

    
    <glyph glyph-name="checkbox-weixuan" unicode="&#59573;" d="M832 704v-640H192V704h640m32 64H160c-17.6 0-32-14.4-32-32v-704c0-17.6 14.4-32 32-32h704c17.6 0 32 14.4 32 32V736c0 17.6-14.4 32-32 32z"  horiz-adv-x="1024" />

    
    <glyph glyph-name="checkbox-xuanzhong" unicode="&#59574;" d="M864 768H160c-17.6 0-32-14.4-32-32v-704c0-17.6 14.4-32 32-32h704c17.6 0 32 14.4 32 32V736c0 17.6-14.4 32-32 32zM428 177.6l-45.6-45.6-45.6 45.6-116 117.6 45.6 45.6L383.2 224l367.2 367.2 45.6-45.6-368-368z"  horiz-adv-x="1024" />

    
    <glyph glyph-name="Raidobox-weixuan" unicode="&#59575;" d="M512 768c212 0 384-172 384-384s-172-384-384-384-384 172-384 384 172 384 384 384m0 64C264.8 832 64 631.2 64 384s200.8-448 448-448 448 200.8 448 448S759.2 832 512 832z"  horiz-adv-x="1024" />

    
    <glyph glyph-name="Raidobox-xuanzhong" unicode="&#59576;" d="M512 832C264.8 832 64 631.2 64 384s200.8-448 448-448 448 200.8 448 448S759.2 832 512 832z m0-640c-106.4 0-192 85.6-192 192s85.6 192 192 192 192-85.6 192-192-85.6-192-192-192zM512 832C264.8 832 64 631.2 64 384s200.8-448 448-448 448 200.8 448 448S759.2 832 512 832z m0-640c-106.4 0-192 85.6-192 192s85.6 192 192 192 192-85.6 192-192-85.6-192-192-192z"  horiz-adv-x="1024" />

    
    <glyph glyph-name="kaoshiliucheng" unicode="&#58922;" d="M135.232 287.616L20.096 220.992c-12.8-7.424-20.096-20.096-20.096-34.88s7.296-27.52 20.096-34.944l470.272-272.192c12.8-7.424 27.52-7.424 40.32 0l470.272 272.192c12.736 7.424 20.096 20.16 20.096 34.944s-7.36 27.456-20.096 34.88l-106.24 61.44 115.328 66.688a39.296 39.296 0 0 1 20.032 34.816 39.36 39.36 0 0 1-20.032 34.88l-110.72 64.064 110.592 64.064c12.928 7.36 20.224 20.096 20.224 34.816s-7.296 27.456-20.224 34.816L539.712 889.024a39.04 39.04 0 0 1-40.32 0L29.056 616.704c-12.736-7.36-20.096-20.096-20.096-34.816s7.36-27.52 20.096-34.816l110.72-64.064-110.72-64.064a39.744 39.744 0 0 1-20.096-35.008c0-14.784 7.36-27.456 20.096-34.816l106.176-61.504zM830.208 522.88l-68.992-40L519.552 343.04 278.016 482.944l-69.12 39.936-101.824 59.008L519.552 820.672l412.48-238.784-101.824-59.008z m0-80l101.824-58.944-412.48-238.72-246.08 142.4-69.12 40.064-97.28 56.256 101.824 58.944 290.432-168.128a39.296 39.296 0 0 1 40.32 0l290.56 168.128z m-4.48-200.448l97.28-56.32-412.48-238.72-412.48 238.72 106.304 61.504 295.04-170.752c12.736-7.424 27.52-7.424 40.384 0l285.952 165.568z"  horiz-adv-x="1030" />

    
    <glyph glyph-name="exam" unicode="&#58750;" d="M732.16 418.816c-133.632 0-242.176-108.544-242.176-242.176s108.544-242.688 242.176-242.688 242.688 108.544 242.688 242.176-108.544 242.688-242.688 242.688zM732.16-20.48c-109.056 0-197.12 88.064-197.12 197.12s88.064 197.12 197.12 197.12 197.12-88.064 197.12-197.12-88.064-197.12-197.12-197.12zM846.336 133.632h-142.848c-7.68 0-14.336 6.144-14.336 14.336v142.848c0 7.68 6.144 14.336 14.336 14.336h18.432c7.68 0 14.336-6.144 14.336-14.336v-110.080h110.080c7.68 0 14.336-6.144 14.336-14.336v-18.432c0-7.68-6.656-14.336-14.336-14.336zM261.632 217.6v-18.432c0-7.68 6.144-14.336 14.336-14.336h114.176c7.68 0 14.336 6.144 14.336 14.336v18.432c0 7.68-6.144 14.336-14.336 14.336h-114.176c-7.68 0-14.336-6.656-14.336-14.336zM475.648 431.616h-199.68c-7.68 0-14.336-6.144-14.336-14.336v-18.432c0-7.68 6.144-14.336 14.336-14.336h199.68c7.68 0 14.336 6.144 14.336 14.336v18.432c0 7.68-6.656 14.336-14.336 14.336zM704 631.296h-428.032c-7.68 0-14.336-6.144-14.336-14.336v-18.432c0-7.68 6.144-14.336 14.336-14.336h428.032c7.68 0 14.336 6.144 14.336 14.336v18.432c-0.512 7.68-6.656 14.336-14.336 14.336zM888.832 520.192v193.024c0 66.048-58.368 120.32-120.32 120.32h-586.24c-57.856 0-120.32-54.784-120.32-120.32v-608.256c0-56.832 60.928-120.32 120.32-120.32h249.856c12.288 0.512 22.016 10.24 22.016 22.528s-9.728 22.528-22.016 22.528h-247.808c-31.232 1.024-75.776 35.84-76.8 77.824v600.064c0.512 43.008 36.352 77.824 74.24 79.36h588.8c40.448-0.512 72.192-40.96 72.704-75.264v-191.488h0.512c0-1.024-0.512-1.536-0.512-2.56 0-12.8 10.24-23.040 23.040-23.040s23.040 10.24 23.040 23.040c0 1.024-0.512 2.048-0.512 2.56z"  horiz-adv-x="1024" />

    
    <glyph glyph-name="zhinan" unicode="&#59035;" d="M484.8 384c0-15.2 12-27.2 27.2-27.2s27.2 12 27.2 27.2-12 27.2-27.2 27.2-27.2-12-27.2-27.2zM512 766.4c-211.2 0-382.4-171.2-382.4-382.4s171.2-382.4 382.4-382.4 382.4 171.2 382.4 382.4-171.2 382.4-382.4 382.4z m0-737.6c-196 0-355.2 159.2-355.2 355.2s159.2 355.2 355.2 355.2 355.2-159.2 355.2-355.2-159.2-355.2-355.2-355.2zM696 613.6l-275.2-165.6c-2.4-1.6-4.8-4-5.6-6.4l-107.2-264c-4.8-12 8-23.2 19.2-16.8l254.4 141.6c2.4 1.6 4.8 4 5.6 6.4l128 288c5.6 12-7.2 24-19.2 16.8z m-131.2-289.6l-216.8-120 91.2 224 234.4 140.8-108.8-244.8z"  horiz-adv-x="1024" />

    
    <glyph glyph-name="kaoshiwenxun" unicode="&#58955;" d="M329.145927 530.766668h-112.174825c-11.673877 0-12.822027-6.326079-12.822027-16.404621v-258.876003c0-14.867616 3.28686-19.049868 17.503652-19.049868h123.226533c0.273223 0 0.515746-0.068562 0.788969-0.068561 0.281409 0 0.524956 0.068562 0.797155 0.068561 13.827937 0 34.190707-5.815449 116.536157-75.244728 12.495592-10.502192 24.700565-21.084201 35.629475-30.700209V640.549004c-13.57518-10.804067-29.250184-23.100114-45.314045-35.348066-90.068342-68.682265-110.731964-74.43427-124.171044-74.43427zM512.789481 894.221494c-281.954627 0-510.524392-228.569766-510.524393-510.524393 0-281.956673 228.569766-510.525416 510.524393-510.525415s510.524392 228.568742 510.524392 510.525415c0.001023 281.954627-228.568742 510.524392-510.524392 510.524393z m26.139333-804.700365c0-10.134825-5.708002-19.295462-14.557554-23.457248a23.968901 23.968901 0 0 0-10.113335-2.2656c-5.921873 0-11.795651 2.24718-16.404622 6.495948-0.331551 0.301875-32.538067 30.048363-68.411089 60.493769-61.662385 52.358485-80.779791 61.567217-84.815711 63.08478H184.111716c-11.202133 0-20.289092 9.458419-20.289092 21.129227V552.325683c0 11.673877 9.086959 21.135366 20.289092 21.135366h44.459585c0.496304 0 0.973164 0.073678 1.468444 0.073678h98.482989c4.103458 1.419326 24.339338 10.307763 93.849458 63.606667 39.957037 30.616298 76.151377 60.567447 76.501348 60.86523 7.440459 6.15007 17.573237 7.317663 26.118867 3.038196 8.538467-4.28356 13.96506-13.269211 13.935384-23.153326v-588.370365z m104.236016 136.295176c-11.261485 0-20.392446 9.509585-20.392446 21.228487 0 7.693216 3.880377 14.46034 9.754155 18.195407 40.384779 22.880103 67.76743 67.388806 67.76743 118.601189 0 50.308803-26.488281 94.145194-65.696258 117.348661-6.096858 3.66139-10.132778 10.682293-10.132778 18.548448 0 11.722996 9.131985 21.23258 20.391422 21.232581 3.784186 0 9.238408-2.439562 11.524475-3.709485 50.731428-30.743188 84.863806-87.903026 84.863806-153.421229 0-66.714448-35.347043-124.798331-87.62571-155.145499-0.002047 0.001023-5.679349-2.935865-10.454096-2.87856z m73.981968-103.787808c-3.910053-2.363837-7.487531-4.1536-12.001335-4.1536-11.20111 0-20.283975 9.453303-20.283975 21.132296 0 8.634658 5.619998 15.626909 12.145621 19.322068 74.439386 45.274136 124.471896 129.247666 124.471896 225.457891 0 96.291067-50.110281 180.308599-124.618229 225.570456-6.767124 3.855818-11.580756 10.605545-11.580756 19.016099 0 11.678994 9.093099 21.135366 20.295232 21.135366 4.570085 0 8.362458-1.915629 12.145621-4.279467 86.127589-52.603055 144.035464-149.914358 144.035464-261.443477 0-111.722524-58.149375-209.235418-144.609539-261.757632z"  horiz-adv-x="1024" />

    
    <glyph glyph-name="kaoshi2" unicode="&#58634;" d="M261.632 236.544h164.352v37.888h-164.352v-37.888z m0 189.952h367.104v37.888h-367.104v-37.888zM805.888 135.68v189.952 417.792c0 70.144-56.832 126.464-126.464 126.464h-468.48c-70.144 0-126.464-56.832-126.464-126.464v-607.232c0-70.144 56.832-126.464 126.464-126.464h468.48c69.632-1.024 126.464 55.808 126.464 125.952z m-582.144-88.576c-55.808 0-101.376 45.568-101.376 101.376V730.112c0 55.808 45.568 101.376 101.376 101.376h442.88c55.808 0 101.376-45.568 101.376-101.376v-582.656C768 91.648 722.432 46.08 666.624 46.08h-442.88z m37.888 569.344h367.104v37.888h-367.104v-37.888zM843.776 732.16v-49.664c23.04-18.432 37.888-47.104 37.888-78.848v-569.856c0-55.808-45.568-101.376-101.376-101.376h-417.792c-31.744 0-60.416 14.848-78.848 37.888h-49.664c19.456-44.544 64-75.776 115.712-75.776H793.088c70.144 0 126.464 56.832 126.464 126.464v189.952 404.992c0 52.224-31.232 96.768-75.776 116.224z"  horiz-adv-x="1024" />

    
    <glyph glyph-name="fabukaoshi" unicode="&#58933;" d="M816-49.6H200c-48 0-88 40-88 88V656c0 48 40 88 88 88h308.8V656H200v-617.6H816V347.2h88v-308.8c0-48-38.4-88-88-88zM820.8 740.8H641.6v-88h112l-72-72-291.2-291.2 64-62.4 289.6 291.2 76.8 75.2v-116.8H912V740.8z"  horiz-adv-x="1024" />

    
    <glyph glyph-name="shuaxin" unicode="&#59562;" d="M853.333333 127.936A426.112 426.112 0 0 0 512-42.666667C276.352-42.666667 85.333333 148.352 85.333333 384S276.352 810.666667 512 810.666667s426.666667-191.018667 426.666667-426.666667a21.333333 21.333333 0 0 0-42.666667 0c0 212.074667-171.925333 384-384 384S128 596.074667 128 384s171.925333-384 384-384a383.573333 383.573333 0 0 1 319.36 170.666667h-84.757333A21.248 21.248 0 0 0 725.333333 192c0 11.776 9.664 21.333333 21.269334 21.333333h128.128c5.866667 0 11.178667-2.346667 15.018666-6.186666l0.021334-0.106667c3.84-3.882667 6.229333-9.173333 6.229333-14.976v-128.128c0-11.733333-9.472-21.269333-21.333333-21.269333-11.776 0-21.333333 9.664-21.333334 21.269333v64z"  horiz-adv-x="1024" />

    
    <glyph glyph-name="fangxinfei" unicode="&#59595;" d="M492.331 178.859c101.141-19.605 188.672-7.68 231.808 14.229 36.331 18.453 68.373 48.299 86.123 66.667 1.472 1.984 3.136 3.989 5.056 5.973 9.685 10.176 33.493 40.192 63.339 90.923 25.813 43.883 27.797 98.069 27.861 111.915h-0.747s-52.736 4.885-74.133 7.104c-21.376 2.24-25.195 6.293-25.899 12.8-0.725 6.485 1.707 11.755 6.229 14.72 4.565 2.923 15.744 4.736 15.744 4.736 11.008 1.643 52.053 2.859 52.053 2.859l46.763 2.581c0.788 0.842 1.319 1.935 1.461 3.146 0.886 3.105 3.595 20.534 2.806 33.227-0.811 12.693-4.245 24.661-3.947 31.253 0.32 6.592 1.621 8.32 5.355 10.347 4.8 2.624 15.616-0.405 25.6-10.027 10.005-9.664 17.856-25.387 19.285-40.789 1.408-15.445 1.003-23.744 1.003-23.744s-0.043-0.235-0.021-0.555c8.405 0.469 58.667 3.221 74.453 3.691 17.237 0.512 24.704-9.749 25.195-18.773 0.512-9.024-0.896-17.365-7.659-25.557-6.763-8.235-12.907-7.317-12.907-7.317l-57.984-1.131-58.283 0.896c2.709-7.893 8.533-28.736 6.336-57.387-0.298-4.41-0.705-8.276-1.245-12.098 11.421 12.354 74.674 18.434 94.173-10.643 21.248-31.659 13.163-79.787 11.563-90.624-1.621-10.837-8.085-66.56-30.123-101.76-21.291-33.963-37.376-44.117-37.376-44.117s-9.173-8.875-21.269-4.309c-12.075 4.608-23.104 12.736-25.813 20.843-0.845 2.486-1.332 5.349-1.332 8.326 0 4.045 0.9 7.879 2.51 11.315 1.787 3.613 21.691 28.509 31.376 43.399 9.685 14.891 30.592 55.68 35.776 93.632 4.395 32.299 1.664 34.901 1.664 34.901s-1.92 11.499-17.28 13.781c-15.467 2.347-40.555 4.053-47.936 4.331-6.955-29.931-19.541-62.144-33.813-86.315-10.389-17.6-20.288-30.933-28.928-41.621-8.32-12.373-92.672-131.541-264.747-151.552-78.72-9.173-159.723 6.891-229.696 30.4l-0.085-0.021-0.213 0.064c-37.013-11.392-82.603-21.333-137.92-26.389 0 0-73.408-9.749-146.837 17.067 0 0 75.029-16.256 137.685-4.373 0 0-160.277 0.277-236.117 45.483 0 0-4.821 7.040 9.685 3.797 9.493-2.133 137.003-16.725 270.592 7.829l8.747-5.035c-47.403 22.613-81.963 44.288-95.381 54.016-29.867 21.632-154.901 127.147-177.493 239.168-22.613 112.043 33.067 185.899 125.867 198.869 92.779 12.992 176.811-40.725 201.152-60.864 33.344-27.605 38.187-38.976 61.312-26.517 22.869 12.309 86.613 43.307 150.613 33.024 64-10.304 165.291-54.869 122.624-204.032-43.029-150.421-143.872-199.936-173.44-217.259l-9.472-5.589-3.712 1.067zM397.782 205.824l0.853 0.235 1.045-0.299c5.461 2.261 10.88 4.629 16.277 7.083 167.253 76.843 184.555 204.8 186.347 220.523 1.899 16.512 16.939 113.643-108.096 89.28 0 0-38.464-8.917-72.619-35.691-32.64-25.621-40.619-24.107-40.619-24.107s-9.408-5.952-48.405 37.333c-39.253 43.584-104.619 85.76-175.616 54.123-99.989-44.587 19.115-195.349 19.115-195.349s75.712-97.515 221.717-153.131zM2753.835 454.912l23.125-12.224s14.080-8.683 7.381-20.864c-6.165-11.243-25.707-3.264-25.707-3.264l-35.52 12.885-37.184 7.253s-20.864 3.2-20.437 16.064c0.469 13.867 16.96 14.080 16.96 14.080l25.28-1.344 13.525 60.907-35.563 2.709s-57.515 3.84-54.997 20.693c1.984 13.355 21.333 16.832 21.333 16.832l7.637 1.387 1.365 4.949s2.304 6.379 8.917 4.565c4.949-1.387 6.72-3.989 6.613-6.4l13.056 2.389 1.536 5.547s2.304 6.4 8.896 4.565c5.397-1.493 6.997-4.416 6.592-6.997l26.837 4.949 8.747 39.339s8.384 34.709 38.976 26.24c36.288-10.069 23.851-45.333 23.851-45.333l-12.757-37.077 19.691-17.28c0.96 2.411 3.84 4.075 9.195 2.603 6.613-1.835 5.333-8.512 5.333-8.512l-1.493-5.547 10.005-8.789c1.131 2.133 3.968 3.456 8.939 2.091 6.613-1.835 5.333-8.533 5.333-8.533l-1.344-4.907 5.845-5.141s14.848-12.949 9.771-25.451c-6.443-15.765-57.771 10.539-57.771 10.539l-31.744 15.893-20.245-58.816zM1181.014 324.992c6.976 13.952 10.027 22.336 10.027 22.336s22.507 62.72 20.971 109.44c-29.504-1.216-44.736 1.365-44.736 1.365s-46.187 5.867-62.507 31.040c-16.363 25.173-11.307 58.24 0.192 78.72 11.499 20.501 23.381 28.821 23.381 28.821s8.683 6.101 16.149 8.917c7.467 2.859 16.341-2.005 14.528-11.157-1.835-9.109-6.656-13.781-10.283-21.696-3.627-7.936-11.093-25.387-12.523-35.52-1.408-10.133 1.429-24.149 21.589-27.989 20.181-3.883 35.691-7.125 59.712-4.48 24 2.645 56.875 10.965 66.133 15.232 9.28 4.267 11.925 5.056 17.557 3.84 5.653-1.216 12.523-4.267 14.528-19.072 2.027-14.805-2.816-19.477-7.467-22.528-4.629-3.029-22.421-19.051-70.805-23.723l-0.491-0.043c5.077-13.483 16.597-51.989 5.419-99.797-9.536-40.725-22.165-68.011-29.248-81.28 8.427-11.328 16.939-21.824 24.939-30.464 25.813-27.883 60.245-59.264 104.896-81.173 0 0 15.339-6.507 19.349-8.128 4.053-1.621 12.096-8.384 9.664-18.389-2.389-10.027-17.707-27.072-40.576-25.451-22.869 1.621-61.611 26.795-61.611 26.795s-54.741 33.621-91.093 83.413c-8.043-10.283-17.259-20.544-26.944-28.48-30.4-24.896-46.272-31.403-57.579-35.456-11.285-4.053-27.157 1.621-33.067 14.336-5.909 12.736-4.309 27.349 1.877 32.768 6.187 5.397 18.304 9.707 31.189 15.147 11.221 4.693 34.581 22.613 55.509 50.645-19.627 40.256-31.147 80.789-36.416 103.040-7.253 30.827-9.536 62.336-9.536 62.336s-0.811 4.203 1.216 8.405c1.494 3.388 4.489 5.877 8.119 6.643 1.844 0.653 8.137 0.525 11.785-2.461 3.627-2.987 4.693-9.195 4.693-9.195s17.365-54.933 34.56-87.381c4.736-8.917 10.496-18.944 16.896-29.355zM759.105 224.747s-51.627-47.616-155.435-48.683c0 0-36.48-1.963-26.88 17.28 5.355 10.837 47.296 3.904 56.448 4.352 11.307 0.533 80.384 3.115 125.867 27.051zM1332.374 375.467s1.707 8.405 6.165 9.728c4.416 1.301 12.395-0.213 15.019-7.616s1.408-12.992 1.408-12.992-2.453-29.547-11.456-48.64c-9.003-19.051-19.925-35.307-33.216-45.44-13.312-10.155-25.557-1.899-30.251 4.331-4.693 6.229-8.875 12.715-9.152 21.525-0.277 8.768 5.909 15.68 11.947 19.328 6.080 3.627 12.267 5.269 16.811 8.384 4.587 3.093 18.901 17.984 26.368 35.84 4.48 10.731 6.357 15.552 6.357 15.552zM1388.843 375.765s-0.981 4.864 1.429 11.157c1.694 4.965 5.917 8.643 11.093 9.53 3.328 0.817 10.688-2.447 13.397-6.607 2.731-4.139 15.424-26.283 19.456-32.256 4.053-5.973 25.536-35.925 35.115-46.656 9.6-10.773 33.387-34.709 42.24-42.133 8.896-7.381 40.64-33.28 67.264-47.36 26.624-14.123 64.64-32.384 107.413-39.275 42.752-6.912 83.115-1.621 125.461 11.776 42.368 13.376 42.88 34.901 76.373 17.856 33.493-17.067 23.68-60.885 0.683-70.208-22.997-9.344-53.653-23.957-105.707-29.653-52.032-5.653-120.619-0.384-201.28 30.443-80.683 30.848-129.493 83.2-159.36 128.256-29.845 45.056-33.579 105.131-33.579 105.131zM1541.441 421.632s14.656 22.443 17.493 33.387c2.816 10.965 7.787 15.552 11.541 16.789 4.331 1.429 16.939-1.067 21.184-24.427 4.245-23.339-9.067-49.493-18.965-62.699-9.877-13.184-25.813-31.851-31.061-35.712-5.248-3.861-13.909-8.939-27.008-2.837-13.12 6.080-16.341 19.477-17.152 27.179-0.811 7.723 5.653 16.043 11.285 19.883 5.653 3.84 24.811 17.664 32.683 28.416zM1677.782 385.088s13.312 24.149 31.275 17.856c18.731-6.571 38.101-23.125 43.157-36.736 5.035-13.589-8.064-26.368-12.309-31.445-4.224-5.077-20.971-25.963-42.965-39.573-21.973-13.589-38.528-19.264-46.784-21.525-8.277-2.219-18.347-0.171-24.021 4.885-5.632 5.077-11.093 14.208-11.285 21.12-0.213 6.891 0.427 9.92 7.893 17.643 0 0 9.664 11.776 19.733 23.339 10.091 11.563 23.808 28.395 23.808 28.395s8.085 9.941 11.52 16.043zM2337.558 433.579s-0.619-6.080 7.467-4.864c8.064 1.216 34.475 6.912 48 3.264 13.504-3.648 26.752-8.32 29.44-31.893 2.837-24.661-23.189-47.659-34.88-55.573-11.712-7.936-37.12-25.173-91.776-43.029-54.677-17.856-90.389-21.312-90.389-21.312s-8.469-1.621-12.48 3.648c-4.053 5.291 0 17.856 1.813 21.333 1.813 3.413 16.128 32.427 21.568 44.629 5.461 12.16 24.619 56.811 28.864 68.373 4.224 11.584 7.317 22.549 8.469 26.603 1.003 3.563 8.683 25.664 23.317 33.536 15.061 8.107 23.253 6.635 33.749 3.797 10.496-2.859 21.397-14.805 24.213-25.173 2.837-10.347 2.624-23.339 2.624-23.339zM1623.937 628.779s82.347 24.021 226.517 30.507c144.128 6.485 216.747-2.709 291.52-24.363 74.773-21.632 53.248-95.787 53.248-95.787s-4.309-30.293-24.192-90.88c-19.904-60.587-50.56-119.061-72.619-168.32-22.059-49.237 24.747-72.491 60.224-76.288 35.499-3.797 103.829-8.661 196.331 4.331 92.544 12.971 178.859 35.179 223.488 56.021 44.672 20.843 86.613 51.136 107.861 82.517 21.227 31.36 24.725 58.176 24.725 58.176s1.493 8.256 5.376 8.107c3.776-0.128 4.395-5.419 4.395-5.419s0.448-20.288-7.616-55.979c-7.211-31.915-23.68-69.824-49.493-103.915-25.813-34.091-55.915-62.763-94.656-80.64-38.72-17.835-86.869-29.909-148.181-42.325-61.312-12.48-164.864-25.856-212.203-27.477-47.317-1.621-108.629-1.067-143.595 4.331-34.965 5.397-88.213 12.992-108.651 37.333-20.437 24.363-10.24 58.453-1.621 93.099 8.619 34.624 57.003 123.904 57.003 123.904s44.672 69.269 60.245 119.595c15.595 50.347 8.619 81.173-64 93.077-72.597 11.904-191.68 8.043-244.928 3.989-53.248-4.053-127.701-18.667-139.584-21.12-11.904-2.432-26.837-0.597-34.496 11.989-7.68 12.587-4.672 34.603 1.195 46.869 5.269 10.965 13.312 13.397 13.312 13.397l20.395 5.269zM2724.097 403.648s-0.683 3.328 0 3.328c0.725 0 1.323-0.896 2.048-3.755 0.704-2.837 6.357-39.68 2.901-65.643-3.413-25.984-5.376-45.781-27.008-88.875-19.499-38.827-21.397-40.192-21.397-40.192s-4.288-7.168-12.757-5.952c-8.469 1.216-16.107 5.909-13.312 12.309 2.816 6.507 6.464 7.979 11.541 13.547 5.248 5.675 20.587 28.395 20.587 28.395s23.403 37.333 31.061 75.499c7.68 38.144 6.357 71.339 6.357 71.339z"  horiz-adv-x="2901" />

    
    <glyph glyph-name="kaoshizongfen" unicode="&#58928;" d="M884.352-17.664H139.648a24 24 0 0 0-24 24V761.664c0 13.248 10.752 24 24 24h744.704c13.248 0 24-10.752 24-24v-755.392a24 24 0 0 0-24-23.936z m-720.704 48h696.704V737.664H163.648v-707.328zM595.456 416.128l23.168 102.144a19276.864 19276.864 0 0 1 124.736 176c12.928 21.248 37.504 36.672 57.088 32.768 21.824-4.352 39.616-34.432 26.496-59.648-11.392-22.016-122.816-180.608-135.424-198.656l-4.928-4.288-91.136-48.32z m47.616 88.256l-7.616-35.328 35.072 18.624c35.52 50.56 122.944 175.872 131.648 192.704 2.688 5.312 0.448 16.256-9.152 17.152-9.024 0.832-18.368-5.568-25.728-17.728-5.952-9.472-106.112-149.952-124.224-175.424zM791.68 641.216l-9.088-10.624-46.4 35.584 9.152 10.624zM783.232 190.976H241.28a24 24 0 0 0 0 48h541.952a24 24 0 0 0 0-48zM783.232 286.976H241.28a24 24 0 0 0 0 48h541.952a24 24 0 0 0 0-48zM783.232 81.024H241.28a24 24 0 0 0 0 48h541.952a24 24 0 0 0 0-48zM282.88 580.096l-0.128 9.6c15.296 13.824 29.184 24.192 41.728 31.104 4.224-6.528 6.4-12.544 6.464-18.176a36.672 36.672 0 0 0-1.728-10.944c-1.28-4.096-5.504-13.824-12.736-29.312a445.12 445.12 0 0 1-20.352-51.072c-5.248-16.064-7.424-25.536-6.784-28.416a53.44 53.44 0 0 0 1.792-10.496c0-2.112-0.576-3.328-1.856-3.584a26.688 26.688 0 0 0-12.544 5.056 16.896 16.896 0 0 0-8.384 14.72c-0.128 10.176 3.776 25.536 11.712 45.952 7.936 20.416 18.048 40.64 30.4 60.608-8.768-3.584-17.92-8.64-27.584-15.04zM427.776 606.272a15.104 15.104 0 0 0 8.256-8.128c1.664-3.712 2.56-9.088 2.624-16.128 0.256-16.96-4.032-34.432-12.8-52.288a130.048 130.048 0 0 0-32.256-43.456c-12.8-11.008-24-16.576-33.792-16.704a28.544 28.544 0 0 0-23.04 11.456 46.976 46.976 0 0 0-9.92 30.272c-0.256 14.144 4.352 29.632 13.888 46.336s21.376 30.528 35.584 41.6c14.208 11.072 26.688 16.704 37.376 16.832 8.64 0.192 13.376-3.072 14.08-9.792z m-26.496-23.424l3.968 8.704c-16.32-7.616-30.784-20.992-43.392-40.128-12.608-19.072-18.816-35.392-18.624-48.768 0.128-9.152 3.456-13.568 10.048-13.44 7.616 0.064 17.92 5.504 30.72 16.448a140.8 140.8 0 0 1 31.424 37.952c8.128 14.464 12.16 27.584 11.968 39.424-0.128 7.488-2.88 11.2-8.32 11.072-5.12-0.064-11.072-3.84-17.792-11.264zM532.8 607.808a16 16 0 0 0 8.256-8.128 46.08 46.08 0 0 0 2.688-16.128c0.192-16.96-4.096-34.432-12.864-52.352a131.328 131.328 0 0 0-32.256-43.392c-12.8-10.944-24.064-16.576-33.792-16.704a28.672 28.672 0 0 0-23.104 11.456 47.232 47.232 0 0 0-9.856 30.336c-0.256 14.144 4.352 29.568 13.824 46.272 9.472 16.704 21.376 30.528 35.584 41.664 14.208 11.072 26.688 16.64 37.376 16.832 8.704 0.128 13.376-3.136 14.144-9.856z m-26.56-23.424l4.032 8.704c-16.448-7.616-30.912-20.928-43.456-40.064-12.608-19.136-18.816-35.392-18.56-48.832 0.128-9.088 3.456-13.568 9.984-13.504 7.68 0.128 17.856 5.632 30.656 16.512 12.8 10.88 23.296 23.552 31.488 37.952 8.192 14.464 12.16 27.584 12.032 39.424-0.064 7.488-2.88 11.2-8.384 11.136-5.12-0.064-10.944-3.84-17.792-11.328zM511.36 457.088l1.792-15.936-236.416-26.048-1.728 15.936zM576.064 424.512l1.856-15.936-341.824-39.04-1.856 15.936z"  horiz-adv-x="1024" />

    
    <glyph glyph-name="kaoshi3" unicode="&#58943;" d="M514.809 383.999zM2.809 383.999c0-282.768 229.23-511.999 512-511.999s511.999 229.231 511.999 511.999c0 282.771-229.23 512.001-512 512.001s-511.999-229.23-511.999-512.001M514.809 383.999zM157.144 383.999c0-197.531 160.132-357.664 357.664-357.664 197.533 0 357.664 160.133 357.664 357.664 0 197.533-160.131 357.664-357.664 357.664-197.532 0.001-357.664-160.131-357.664-357.664M639.608 94.915h-0.758c0.257 0 0.503 0.018 0.758 0.020v-0.020zM639.608 74.447h-0.76v20.472l-19.155 0.014h19.155v20.453l-0.321-0.008c0.327 0.015 0.59 0.025 0.855 0.026l20.141 0.235v-41.172l-19.916-0.021zM152.027 560.582h431.271v-408.569c0-31.536 24.871-57.1 55.553-57.1l-486.824 0.006c-30.565 0.141-55.305 25.644-55.305 57.093v408.569h55.305zM638.851 74.447h-506.737v2.825c-31.839 9.103-55.305 39.211-55.305 74.74v429.038h526.404v-429.038c0-20.195 15.988-36.626 35.638-36.626v-40.939zM153.407 115.387h418.933c-5.713 10.914-8.956 23.389-8.956 36.626v388.1h-446.746v-388.1c0-20.104 15.914-36.533 35.478-36.619l1.291-0.008zM156.959 94.945h0.938c-0.316 0-0.625 0.024-0.938 0.026v-0.026zM157.898 74.475h-20.852v41.191l20.16-0.231c0.288-0.001 0.575-0.013 0.859-0.023h-0.167v-20.442h18.979l-18.979-0.025v-20.47zM826.769 477.098v192.384h-600.332v-504.092c0-38.905-30.686-70.445-68.539-70.445l600.637 0.008c37.715 0.166 68.235 31.636 68.235 70.437v311.709zM758.534 74.475h-600.637v40.938c26.809 0 48.625 22.417 48.625 49.977v524.561h640.161v-212.855c0-11.305-8.914-20.467-19.914-20.467-10.996 0-19.914 9.162-19.914 20.467v171.917h-560.504v-483.622c0-18.445-5.375-35.629-14.596-49.977l526.691 0.005c26.695 0.122 48.408 22.54 48.408 49.972v202.723c0 11.298 8.918 20.466 19.914 20.466 11 0 19.914-9.167 19.914-20.466v-202.723c0-42.9-29.194-79.061-68.234-88.502v-2.404l-19.915-0.009zM954.525 186.585c0-28.264-22.292-51.173-49.785-51.173h-123.762c-27.495 0-49.787 22.909-49.787 51.173v65.533c0 28.259 22.292 51.173 49.787 51.173h123.762c27.493 0 49.785-22.914 49.785-51.173v-65.533zM904.74 114.945h-123.762c-38.431 0-69.702 32.137-69.702 71.64v65.533c0 39.502 31.27 71.639 69.702 71.639h123.762c38.432 0 69.7-32.137 69.7-71.639v-65.533c0-39.503-31.269-71.64-69.7-71.64zM780.978 282.819c-16.47 0-29.872-13.776-29.872-30.701v-65.533c0-16.929 13.402-30.701 29.872-30.701h123.762c16.47 0 29.871 13.772 29.871 30.701v65.533c0 16.925-13.401 30.701-29.871 30.701h-123.762zM920.792 278.556l-124.432-119.052c5.555-3.379 12.273-5.38 19.457-5.38 0.013 0 0.026 0 0.040 0l80.581-0c21.51 0 38.949 17.923 38.949 40.029v53.174c0.001 12.636-5.699 23.892-14.596 31.229zM332.32 341.242c2.445 0.272 3.669 1.82 3.406 4.337-0.361 3.361-1.499 6.343-1.848 9.707-1.967 18.748 16.206 60.684 24.005 78.251 34.893 79.46 34.976 78.622 34.124 86.741-0.443 4.201-7.466 18.701-14.549 17.924-7.625-0.849-36.415-23.013-44.84-29.32-6.126-4.645-11.303-7.775-10.991-15.943-0.096-1.712-0.146-6.529 2.851-6.196 1.092 0.122 6.029 2.932 7.060 3.621l24.798 12.948 0.6-0.506c-6.785-11.506-25.686-43.906-42-79.964-6.030-13.417-14.469-45.767-13.006-59.761 1.535-14.547 13.45-15.217 24.405-19.931 1.44-0.713 4.616-2.058 5.982-1.908zM567.785 506.679c-1.174 11.187-4.001 25.033-16.67 27.594 1.699 2.17 8.232 2.897 7.907 5.975-0.645 6.16-15.401 18.109-26.56 16.866-17.7-1.97-57.053-28.42-78.16-58.222-17.739-25.181-33.69-62.065-30.372-93.678 2.495-23.799 19.875-47.622 44.72-42.88 65.121 12.039 104.782 90.619 99.136 144.345zM519.673 435.090l-24.031-28.15c-5.643-6.567-21.946-19.143-30.118-20.044-7.624-0.85-10.417 15.265-10.705 20.611-1.402 29 15.931 71.119 61.969 104.827 0.184-1.677 1.065-4.978 3.248-4.733 2.719 0.296 8.715 11.446 15.798 12.235 7.625 0.848 11.457-9.488 12.081-15.363 1.941-18.466-17.705-54.34-28.242-69.382zM721.614 523.752c-1.174 11.2-4.005 25.035-16.674 27.594 1.703 2.17 8.235 2.898 7.913 5.977-0.65 6.16-15.403 18.107-26.562 16.865-17.702-1.958-57.062-28.42-78.171-58.222-17.739-25.181-33.693-62.067-30.36-93.676 2.492-23.79 19.872-47.626 44.72-42.885 65.103 12.050 104.78 90.623 99.133 144.347zM673.504 452.163l-24.031-28.149c-5.648-6.578-21.948-19.145-30.122-20.046-7.624-0.849-10.412 15.264-10.703 20.608-1.405 29.003 15.928 71.134 61.969 104.841 0.18-1.677 1.077-4.977 3.249-4.743 2.718 0.296 8.712 11.444 15.797 12.232 7.621 0.852 11.459-9.484 12.081-15.362 1.94-18.465-17.704-54.34-28.24-69.382zM635.206 350.74c10.753 1.763 30.551 4.421 30.551 4.421-226.318-14.154-348.516-75.172-348.516-75.172s-8.173-5.458 0-9.288c4.102-1.923 27.964 9.288 27.964 9.288 163.644 59.7 352.387 75.186 352.387 75.186-22.364-0.898-62.386-4.435-62.386-4.435zM697.608 338.321c-226.322-14.155-348.518-75.182-348.518-75.182s-8.173-5.46 0-9.288c4.099-1.923 27.965 9.288 27.965 9.288 163.644 59.7 352.386 75.182 352.386 75.182-22.375-0.885-62.386-4.422-62.386-4.422 10.753 1.775 30.554 4.422 30.554 4.422zM965.706 399.622h-122.102c-10.997 0-19.915 9.164-19.915 20.47s8.918 20.468 19.915 20.468h122.102c11.003 0 19.915-9.163 19.915-20.468s-8.912-20.47-19.915-20.47zM905.707 336.874c-10.998 0-19.914 9.164-19.914 20.468v125.499c0 11.304 8.915 20.468 19.914 20.468s19.915-9.164 19.915-20.468v-125.499c0-11.304-8.917-20.468-19.915-20.468z"  horiz-adv-x="1052" />

    
    </font>
</defs>
</svg>
